%TF.GenerationSoftware,KiCad,Pcbnew,9.0.7+1*%
%TF.CreationDate,Date%
%TF.ProjectId,Sienkiewicz_LED,5369656e-6b69-4657-9769-637a5f4c4544,2.1.0+ (Unreleased)*%
%TF.SameCoordinates,Original*%
%TF.FileFunction,Copper,L2,Bot*%
%TF.FilePolarity,Positive*%
%FSLAX46Y46*%
G04 Gerber Fmt 4.6, Leading zero omitted, Abs format (unit mm)*
G04 Created by KiCad*
%MOMM*%
%LPD*%
G01*
G04 APERTURE LIST*
G04 Aperture macros list*
%AMRoundRect*
0 Rectangle with rounded corners*
0 $1 Rounding radius*
0 $2 $3 $4 $5 $6 $7 $8 $9 X,Y pos of 4 corners*
0 Add a 4 corners polygon primitive as box body*
4,1,4,$2,$3,$4,$5,$6,$7,$8,$9,$2,$3,0*
0 Add four circle primitives for the rounded corners*
1,1,$1+$1,$2,$3*
1,1,$1+$1,$4,$5*
1,1,$1+$1,$6,$7*
1,1,$1+$1,$8,$9*
0 Add four rect primitives between the rounded corners*
20,1,$1+$1,$2,$3,$4,$5,0*
20,1,$1+$1,$4,$5,$6,$7,0*
20,1,$1+$1,$6,$7,$8,$9,0*
20,1,$1+$1,$8,$9,$2,$3,0*%
G04 Aperture macros list end*
%TA.AperFunction,Conductor*%
%ADD10C,0.400000*%
%TD*%
%TA.AperFunction,Conductor*%
%ADD11C,0.500000*%
%TD*%
%TA.AperFunction,Conductor*%
%ADD12C,0.200000*%
%TD*%
%TA.AperFunction,ComponentPad*%
%ADD13C,0.800000*%
%TD*%
%TA.AperFunction,ComponentPad*%
%ADD14C,6.400000*%
%TD*%
%TA.AperFunction,SMDPad,CuDef*%
%ADD15RoundRect,0.150000X-0.875000X-0.150000X0.875000X-0.150000X0.875000X0.150000X-0.875000X0.150000X0*%
%TD*%
%TA.AperFunction,SMDPad,CuDef*%
%ADD16C,1.000000*%
%TD*%
%TA.AperFunction,SMDPad,CuDef*%
%ADD17RoundRect,0.250000X-0.325000X-1.100000X0.325000X-1.100000X0.325000X1.100000X-0.325000X1.100000X0*%
%TD*%
%TA.AperFunction,SMDPad,CuDef*%
%ADD18RoundRect,0.250000X0.312500X0.625000X-0.312500X0.625000X-0.312500X-0.625000X0.312500X-0.625000X0*%
%TD*%
%TA.AperFunction,ViaPad*%
%ADD19C,0.550000*%
%TD*%
G04 APERTURE END LIST*
D10*
%TO.N,/Project Architecture/Sec A - Shift Register Screw Interface/SR_CLK*%
X135500000Y-90215000D02*
G75*
G02*
X137000000Y-88715000I1500000J0D01*
G01*
%TO.N,/Project Architecture/Sec A - Shift Register Screw Interface/SR_SDI*%
X137000000Y-87445000D02*
G75*
G02*
X135500000Y-85945000I0J1500000D01*
G01*
D11*
%TO.N,+5V*%
X150000000Y-91000000D02*
G75*
G02*
X151000000Y-90000000I1000000J0D01*
G01*
D12*
%TO.N,Net-(U2-SDO)*%
X156120000Y-86810000D02*
G75*
G02*
X155485000Y-87445000I-635000J0D01*
G01*
X156120000Y-86810000D02*
G75*
G02*
X156755000Y-86175000I635000J0D01*
G01*
D11*
%TO.N,+5V*%
X161500000Y-91000000D02*
G75*
G02*
X159500000Y-93000000I-2000000J0D01*
G01*
%TD*%
D13*
%TO.P,U1,1,SDI*%
%TO.N,/Project Architecture/Sec A - Shift Register Screw Interface/SR_SDI*%
X133100000Y-77000000D03*
X133802944Y-75302944D03*
X133802944Y-78697056D03*
X135500000Y-74600000D03*
D14*
X135500000Y-77000000D03*
D13*
X135500000Y-79400000D03*
X137197056Y-75302944D03*
X137197056Y-78697056D03*
X137900000Y-77000000D03*
%TO.P,U1,2,VCC*%
%TO.N,+5V*%
X159100000Y-77000000D03*
X159802944Y-75302944D03*
X159802944Y-78697056D03*
X161500000Y-74600000D03*
D14*
X161500000Y-77000000D03*
D13*
X161500000Y-79400000D03*
X163197056Y-75302944D03*
X163197056Y-78697056D03*
X163900000Y-77000000D03*
%TO.P,U1,3,LATCH*%
%TO.N,/Project Architecture/Sec A - Shift Register Screw Interface/SR_LATCH*%
X159100000Y-103000000D03*
X159802944Y-101302944D03*
X159802944Y-104697056D03*
X161500000Y-100600000D03*
D14*
X161500000Y-103000000D03*
D13*
X161500000Y-105400000D03*
X163197056Y-101302944D03*
X163197056Y-104697056D03*
X163900000Y-103000000D03*
%TO.P,U1,4,CLK*%
%TO.N,/Project Architecture/Sec A - Shift Register Screw Interface/SR_CLK*%
X133100000Y-103000000D03*
X133802944Y-101302944D03*
X133802944Y-104697056D03*
X135500000Y-100600000D03*
D14*
X135500000Y-103000000D03*
D13*
X135500000Y-105400000D03*
X137197056Y-101302944D03*
X137197056Y-104697056D03*
X137900000Y-103000000D03*
%TO.P,U1,5,GND*%
%TO.N,GND*%
X146100000Y-100000000D03*
X146802944Y-98302944D03*
X146802944Y-101697056D03*
X148500000Y-97600000D03*
D14*
X148500000Y-100000000D03*
D13*
X148500000Y-102400000D03*
X150197056Y-98302944D03*
X150197056Y-101697056D03*
X150900000Y-100000000D03*
%TD*%
D15*
%TO.P,U2,1,GND*%
%TO.N,GND*%
X143850000Y-89984999D03*
%TO.P,U2,2,SDI*%
%TO.N,/Project Architecture/Sec B - Shift Register/RS_SDI*%
X143850000Y-88715000D03*
%TO.P,U2,3,CLK*%
%TO.N,/Project Architecture/Sec B - Shift Register/RS_CLK*%
X143850000Y-87445000D03*
%TO.P,U2,4,LE/DM1*%
%TO.N,/Project Architecture/Sec B - Shift Register/RS_LATCH*%
X143849999Y-86175000D03*
%TO.P,U2,5,~{OUT0}*%
%TO.N,/Project Architecture/Sec B - Shift Register/L1*%
X143850000Y-84905000D03*
%TO.P,U2,6,~{OUT1}*%
%TO.N,/Project Architecture/Sec B - Shift Register/L2*%
X143850000Y-83635000D03*
%TO.P,U2,7,~{OUT2}*%
%TO.N,/Project Architecture/Sec B - Shift Register/L3*%
X143850000Y-82365000D03*
%TO.P,U2,8,~{OUT3}*%
%TO.N,/Project Architecture/Sec B - Shift Register/L4*%
X143850000Y-81095000D03*
%TO.P,U2,9,~{OUT4}*%
%TO.N,/Project Architecture/Sec B - Shift Register/L5*%
X143849999Y-79825000D03*
%TO.P,U2,10,~{OUT5}*%
%TO.N,/Project Architecture/Sec B - Shift Register/L6*%
X143850000Y-78555000D03*
%TO.P,U2,11,~{OUT6}*%
%TO.N,/Project Architecture/Sec B - Shift Register/L7*%
X143850000Y-77285000D03*
%TO.P,U2,12,~{OUT7}*%
%TO.N,/Project Architecture/Sec B - Shift Register/L8*%
X143850000Y-76015001D03*
%TO.P,U2,13,~{OUT8}*%
%TO.N,/Project Architecture/Sec B - Shift Register/L9*%
X153150000Y-76015001D03*
%TO.P,U2,14,~{OUT9}*%
%TO.N,/Project Architecture/Sec B - Shift Register/L10*%
X153150000Y-77285000D03*
%TO.P,U2,15,~{OUT10}*%
%TO.N,/Project Architecture/Sec B - Shift Register/L11*%
X153150000Y-78555000D03*
%TO.P,U2,16,~{OUT11}*%
%TO.N,/Project Architecture/Sec B - Shift Register/L12*%
X153150001Y-79825000D03*
%TO.P,U2,17,~{OUT12}*%
%TO.N,/Project Architecture/Sec B - Shift Register/L13*%
X153150000Y-81095000D03*
%TO.P,U2,18,~{OUT13}*%
%TO.N,/Project Architecture/Sec B - Shift Register/L14*%
X153150000Y-82365000D03*
%TO.P,U2,19,~{OUT14}*%
%TO.N,/Project Architecture/Sec B - Shift Register/L15*%
X153150000Y-83635000D03*
%TO.P,U2,20,~{OUT15}*%
%TO.N,/Project Architecture/Sec B - Shift Register/L16*%
X153150000Y-84905000D03*
%TO.P,U2,21,~{OE/DM2}*%
%TO.N,GND*%
X153150001Y-86175000D03*
%TO.P,U2,22,SDO*%
%TO.N,Net-(U2-SDO)*%
X153150000Y-87445000D03*
%TO.P,U2,23,R-EXT*%
%TO.N,Net-(U2-R-EXT)*%
X153150000Y-88715000D03*
%TO.P,U2,24,VDD*%
%TO.N,+5V*%
X153150000Y-89984999D03*
%TD*%
D16*
%TO.P,TP2,1,1*%
%TO.N,+5V*%
X154500000Y-93000000D03*
%TD*%
D17*
%TO.P,Cd1,1*%
%TO.N,GND*%
X147024999Y-93000000D03*
%TO.P,Cd1,2*%
%TO.N,+5V*%
X149975001Y-93000000D03*
%TD*%
D18*
%TO.P,R1,1*%
%TO.N,GND*%
X160122500Y-88715000D03*
%TO.P,R1,2*%
%TO.N,Net-(U2-R-EXT)*%
X157197500Y-88715000D03*
%TD*%
D16*
%TO.P,TP3,1,1*%
%TO.N,Net-(U2-SDO)*%
X158660000Y-86175000D03*
%TD*%
%TO.P,TP1,1,1*%
%TO.N,GND*%
X142500000Y-93000000D03*
%TD*%
D19*
%TO.N,/Project Architecture/Sec B - Shift Register/L16*%
X155485000Y-85540000D03*
%TO.N,/Project Architecture/Sec B - Shift Register/L12*%
X158025000Y-83000000D03*
%TO.N,/Project Architecture/Sec B - Shift Register/L10*%
X154850000Y-77285000D03*
%TO.N,/Project Architecture/Sec A - Shift Register Screw Interface/SR_LATCH*%
X143000000Y-97000000D03*
%TO.N,/Project Architecture/Sec B - Shift Register/L7*%
X142150000Y-77285000D03*
%TO.N,/Project Architecture/Sec B - Shift Register/L13*%
X157390000Y-83635000D03*
%TO.N,/Project Architecture/Sec B - Shift Register/L1*%
X141515000Y-85540000D03*
%TO.N,/Project Architecture/Sec B - Shift Register/L6*%
X138340000Y-82365000D03*
%TO.N,/Project Architecture/Sec B - Shift Register/L2*%
X140880000Y-84905000D03*
%TO.N,/Project Architecture/Sec B - Shift Register/L15*%
X156120000Y-84905000D03*
%TO.N,/Project Architecture/Sec B - Shift Register/L5*%
X138975000Y-83000000D03*
%TO.N,/Project Architecture/Sec B - Shift Register/L14*%
X156755000Y-84270000D03*
%TO.N,/Project Architecture/Sec B - Shift Register/L8*%
X145325000Y-76015000D03*
%TO.N,/Project Architecture/Sec B - Shift Register/L4*%
X139610000Y-83635000D03*
%TO.N,/Project Architecture/Sec B - Shift Register/L11*%
X158660000Y-82365000D03*
%TO.N,/Project Architecture/Sec B - Shift Register/L3*%
X140245000Y-84270000D03*
%TO.N,/Project Architecture/Sec B - Shift Register/L9*%
X151675000Y-76015000D03*
%TO.N,/Project Architecture/Sec B - Shift Register/RS_LATCH*%
X142150000Y-86175000D03*
%TD*%
D11*
%TO.N,+5V*%
X161500000Y-77000000D02*
X161500000Y-79400000D01*
X149975001Y-93000000D02*
X153500000Y-93000000D01*
X150000000Y-91000000D02*
X150000000Y-92975001D01*
X151015001Y-89984999D02*
X153150000Y-89984999D01*
X149975001Y-93000000D02*
X159500000Y-93000000D01*
X151000000Y-90000000D02*
X151015001Y-89984999D01*
X161500000Y-91000000D02*
X161500000Y-77000000D01*
X150000000Y-92975001D02*
X149975001Y-93000000D01*
D12*
%TO.N,Net-(U2-SDO)*%
X156755000Y-86175000D02*
X158660000Y-86175000D01*
X155485000Y-87445000D02*
X153150000Y-87445000D01*
%TO.N,/Project Architecture/Sec B - Shift Register/L16*%
X155485000Y-85540000D02*
X154850000Y-84905000D01*
X154850000Y-84905000D02*
X153150000Y-84905000D01*
%TO.N,/Project Architecture/Sec B - Shift Register/L12*%
X158025000Y-83000000D02*
X154850000Y-79825000D01*
X154850000Y-79825000D02*
X153150001Y-79825000D01*
%TO.N,/Project Architecture/Sec B - Shift Register/L10*%
X153150000Y-77285000D02*
X154850000Y-77285000D01*
D10*
%TO.N,/Project Architecture/Sec A - Shift Register Screw Interface/SR_CLK*%
X137000000Y-88715000D02*
X143850000Y-88715000D01*
X135500000Y-90215000D02*
X135500000Y-103000000D01*
D12*
%TO.N,/Project Architecture/Sec B - Shift Register/L7*%
X143850000Y-77285000D02*
X142150000Y-77285000D01*
%TO.N,/Project Architecture/Sec B - Shift Register/L13*%
X157390000Y-83635000D02*
X154850000Y-81095000D01*
X154850000Y-81095000D02*
X153150000Y-81095000D01*
%TO.N,/Project Architecture/Sec B - Shift Register/L1*%
X142150000Y-84905000D02*
X143850000Y-84905000D01*
X141515000Y-85540000D02*
X142150000Y-84905000D01*
%TO.N,/Project Architecture/Sec B - Shift Register/L6*%
X142150000Y-78555000D02*
X143850000Y-78555000D01*
X138340000Y-82365000D02*
X142150000Y-78555000D01*
%TO.N,/Project Architecture/Sec B - Shift Register/L2*%
X140880000Y-84905000D02*
X142150000Y-83635000D01*
X142150000Y-83635000D02*
X143850000Y-83635000D01*
%TO.N,/Project Architecture/Sec B - Shift Register/L15*%
X154850000Y-83635000D02*
X153150000Y-83635000D01*
X156120000Y-84905000D02*
X154850000Y-83635000D01*
D10*
%TO.N,/Project Architecture/Sec A - Shift Register Screw Interface/SR_SDI*%
X135500000Y-85945000D02*
X135500000Y-77000000D01*
X137000000Y-87445000D02*
X143850000Y-87445000D01*
D12*
%TO.N,/Project Architecture/Sec B - Shift Register/L5*%
X142150000Y-79825000D02*
X143849999Y-79825000D01*
X138975000Y-83000000D02*
X142150000Y-79825000D01*
%TO.N,/Project Architecture/Sec B - Shift Register/L14*%
X156755000Y-84270000D02*
X154850000Y-82365000D01*
X154850000Y-82365000D02*
X153150000Y-82365000D01*
D10*
%TO.N,Net-(U2-R-EXT)*%
X153150000Y-88715000D02*
X157197500Y-88715000D01*
D12*
%TO.N,/Project Architecture/Sec B - Shift Register/L8*%
X143850000Y-76015001D02*
X145325000Y-76015000D01*
%TO.N,/Project Architecture/Sec B - Shift Register/L4*%
X142150000Y-81095000D02*
X143850000Y-81095000D01*
X139610000Y-83635000D02*
X142150000Y-81095000D01*
%TO.N,/Project Architecture/Sec B - Shift Register/L11*%
X154850000Y-78555000D02*
X153150000Y-78555000D01*
X158660000Y-82365000D02*
X154850000Y-78555000D01*
%TO.N,/Project Architecture/Sec B - Shift Register/L3*%
X142150000Y-82365000D02*
X143850000Y-82365000D01*
X140245000Y-84270000D02*
X142150000Y-82365000D01*
%TO.N,/Project Architecture/Sec B - Shift Register/L9*%
X153150000Y-76015001D02*
X151675000Y-76015000D01*
%TO.N,/Project Architecture/Sec B - Shift Register/RS_LATCH*%
X143849999Y-86175000D02*
X142150000Y-86175000D01*
%TD*%
%TA.AperFunction,Conductor*%
%TO.N,GND*%
G36*
X161502443Y-71250596D02*
G01*
X161946251Y-71268033D01*
X161955921Y-71268794D01*
X162394587Y-71320714D01*
X162404192Y-71322235D01*
X162837418Y-71408409D01*
X162846878Y-71410680D01*
X163272002Y-71530577D01*
X163281255Y-71533583D01*
X163695668Y-71686467D01*
X163704657Y-71690190D01*
X164105804Y-71875123D01*
X164114468Y-71879538D01*
X164499860Y-72095368D01*
X164508162Y-72100455D01*
X164875421Y-72345849D01*
X164883294Y-72351569D01*
X165169423Y-72577136D01*
X165230178Y-72625031D01*
X165237575Y-72631349D01*
X165561940Y-72931188D01*
X165568818Y-72938066D01*
X165868645Y-73262418D01*
X165874968Y-73269821D01*
X166148427Y-73616701D01*
X166154150Y-73624578D01*
X166399544Y-73991837D01*
X166404631Y-74000139D01*
X166620461Y-74385531D01*
X166624882Y-74394206D01*
X166809807Y-74795339D01*
X166813533Y-74804335D01*
X166966415Y-75218741D01*
X166969423Y-75228000D01*
X167089318Y-75653117D01*
X167091591Y-75662585D01*
X167177763Y-76095802D01*
X167179286Y-76105418D01*
X167231203Y-76544059D01*
X167231967Y-76553766D01*
X167249404Y-76997556D01*
X167249500Y-77002424D01*
X167249500Y-102997575D01*
X167249404Y-103002443D01*
X167231967Y-103446233D01*
X167231203Y-103455940D01*
X167179286Y-103894581D01*
X167177763Y-103904197D01*
X167091591Y-104337414D01*
X167089318Y-104346882D01*
X166969423Y-104771999D01*
X166966415Y-104781258D01*
X166813533Y-105195664D01*
X166809807Y-105204660D01*
X166624882Y-105605793D01*
X166620461Y-105614468D01*
X166404631Y-105999860D01*
X166399544Y-106008162D01*
X166154150Y-106375421D01*
X166148427Y-106383298D01*
X165874968Y-106730178D01*
X165868645Y-106737581D01*
X165568818Y-107061933D01*
X165561933Y-107068818D01*
X165237581Y-107368645D01*
X165230178Y-107374968D01*
X164883298Y-107648427D01*
X164875421Y-107654150D01*
X164508162Y-107899544D01*
X164499860Y-107904631D01*
X164114468Y-108120461D01*
X164105793Y-108124882D01*
X163704660Y-108309807D01*
X163695664Y-108313533D01*
X163281258Y-108466415D01*
X163271999Y-108469423D01*
X162846882Y-108589318D01*
X162837414Y-108591591D01*
X162404197Y-108677763D01*
X162394581Y-108679286D01*
X161955940Y-108731203D01*
X161946233Y-108731967D01*
X161502443Y-108749404D01*
X161497575Y-108749500D01*
X135502425Y-108749500D01*
X135497557Y-108749404D01*
X135053766Y-108731967D01*
X135044059Y-108731203D01*
X134605418Y-108679286D01*
X134595802Y-108677763D01*
X134162585Y-108591591D01*
X134153117Y-108589318D01*
X133728000Y-108469423D01*
X133718741Y-108466415D01*
X133304335Y-108313533D01*
X133295339Y-108309807D01*
X132894206Y-108124882D01*
X132885531Y-108120461D01*
X132500139Y-107904631D01*
X132491837Y-107899544D01*
X132124578Y-107654150D01*
X132116701Y-107648427D01*
X131769821Y-107374968D01*
X131762418Y-107368645D01*
X131450137Y-107079976D01*
X131438059Y-107068811D01*
X131431188Y-107061940D01*
X131131349Y-106737575D01*
X131125031Y-106730178D01*
X131105576Y-106705500D01*
X130851569Y-106383294D01*
X130845849Y-106375421D01*
X130823059Y-106341314D01*
X130600453Y-106008159D01*
X130595368Y-105999860D01*
X130379538Y-105614468D01*
X130375123Y-105605804D01*
X130190190Y-105204657D01*
X130186466Y-105195664D01*
X130138425Y-105065444D01*
X130033583Y-104781255D01*
X130030576Y-104771999D01*
X130027674Y-104761711D01*
X129910680Y-104346878D01*
X129908408Y-104337414D01*
X129899872Y-104294500D01*
X129822235Y-103904192D01*
X129820713Y-103894581D01*
X129818286Y-103874076D01*
X129768794Y-103455921D01*
X129768033Y-103446251D01*
X129750596Y-103002443D01*
X129750500Y-102997575D01*
X129750500Y-102832947D01*
X132099500Y-102832947D01*
X132099500Y-103167052D01*
X132132247Y-103499548D01*
X132132250Y-103499565D01*
X132197425Y-103827230D01*
X132197428Y-103827241D01*
X132294418Y-104146977D01*
X132373300Y-104337414D01*
X132399701Y-104401152D01*
X132422278Y-104455656D01*
X132422280Y-104455661D01*
X132579769Y-104750303D01*
X132579780Y-104750321D01*
X132765393Y-105028109D01*
X132765403Y-105028123D01*
X132977361Y-105286395D01*
X133213604Y-105522638D01*
X133213609Y-105522642D01*
X133213610Y-105522643D01*
X133471882Y-105734601D01*
X133749685Y-105920224D01*
X133749694Y-105920229D01*
X133749696Y-105920230D01*
X134044338Y-106077719D01*
X134044340Y-106077719D01*
X134044346Y-106077723D01*
X134353024Y-106205582D01*
X134672749Y-106302569D01*
X134672755Y-106302570D01*
X134672758Y-106302571D01*
X134672769Y-106302574D01*
X134878243Y-106343444D01*
X135000441Y-106367751D01*
X135332944Y-106400500D01*
X135332947Y-106400500D01*
X135667053Y-106400500D01*
X135667056Y-106400500D01*
X135999559Y-106367751D01*
X136161757Y-106335487D01*
X136327230Y-106302574D01*
X136327241Y-106302571D01*
X136327241Y-106302570D01*
X136327251Y-106302569D01*
X136646976Y-106205582D01*
X136955654Y-106077723D01*
X137250315Y-105920224D01*
X137528118Y-105734601D01*
X137786390Y-105522643D01*
X138022643Y-105286390D01*
X138234601Y-105028118D01*
X138420224Y-104750315D01*
X138577723Y-104455654D01*
X138705582Y-104146976D01*
X138802569Y-103827251D01*
X138802571Y-103827241D01*
X138802574Y-103827230D01*
X138849548Y-103591072D01*
X138867751Y-103499559D01*
X138900500Y-103167056D01*
X138900500Y-102832944D01*
X138867751Y-102500441D01*
X138833200Y-102326742D01*
X138802574Y-102172769D01*
X138802571Y-102172758D01*
X138802570Y-102172755D01*
X138802569Y-102172749D01*
X138705582Y-101853024D01*
X138577723Y-101544346D01*
X138564130Y-101518916D01*
X138420230Y-101249696D01*
X138420229Y-101249694D01*
X138420224Y-101249685D01*
X138234601Y-100971882D01*
X138022643Y-100713610D01*
X138022642Y-100713609D01*
X138022638Y-100713604D01*
X137786395Y-100477361D01*
X137528123Y-100265403D01*
X137528122Y-100265402D01*
X137528118Y-100265399D01*
X137250315Y-100079776D01*
X137250310Y-100079773D01*
X137250303Y-100079769D01*
X136955661Y-99922280D01*
X136955656Y-99922278D01*
X136910090Y-99903404D01*
X136842860Y-99875556D01*
X136646977Y-99794418D01*
X136327241Y-99697428D01*
X136327229Y-99697425D01*
X136000309Y-99632397D01*
X135938398Y-99600012D01*
X135903824Y-99539297D01*
X135900500Y-99510780D01*
X135900500Y-97000840D01*
X141794500Y-97000840D01*
X141794500Y-100000410D01*
X141794503Y-100001082D01*
X141794503Y-100001095D01*
X141794989Y-100112598D01*
X141795024Y-100115612D01*
X141795097Y-100119294D01*
X141795186Y-100122551D01*
X141802961Y-100345183D01*
X141803115Y-100348689D01*
X141803347Y-100353121D01*
X141803566Y-100356715D01*
X141819089Y-100578720D01*
X141819367Y-100582262D01*
X141819737Y-100586498D01*
X141819741Y-100586542D01*
X141820090Y-100590166D01*
X141821498Y-100603560D01*
X141843362Y-100811575D01*
X141843774Y-100815190D01*
X141844299Y-100819460D01*
X141844763Y-100822980D01*
X141875721Y-101043264D01*
X141875735Y-101043355D01*
X141876261Y-101046874D01*
X141876263Y-101046884D01*
X141876942Y-101051181D01*
X141877532Y-101054707D01*
X141916180Y-101273893D01*
X141916818Y-101277335D01*
X141917670Y-101281719D01*
X141918374Y-101285183D01*
X141964655Y-101502915D01*
X141965421Y-101506377D01*
X141966383Y-101510546D01*
X141967210Y-101513989D01*
X141967224Y-101514047D01*
X141987576Y-101595675D01*
X142021085Y-101730073D01*
X142021860Y-101733065D01*
X142021999Y-101733601D01*
X142023120Y-101737781D01*
X142024067Y-101741194D01*
X142055088Y-101849376D01*
X142085432Y-101955200D01*
X142086423Y-101958548D01*
X142087668Y-101962618D01*
X142088761Y-101966087D01*
X142157537Y-102177759D01*
X142158713Y-102181276D01*
X142160063Y-102185196D01*
X142161307Y-102188710D01*
X142237427Y-102397848D01*
X142238650Y-102401119D01*
X142240181Y-102405111D01*
X142241513Y-102408494D01*
X142324920Y-102614933D01*
X142326278Y-102618209D01*
X142326293Y-102618245D01*
X142327984Y-102622228D01*
X142329408Y-102625504D01*
X142329426Y-102625545D01*
X142419939Y-102828841D01*
X142421424Y-102832099D01*
X142423275Y-102836068D01*
X142424827Y-102839322D01*
X142522340Y-103039252D01*
X142523910Y-103042402D01*
X142523935Y-103042451D01*
X142525897Y-103046304D01*
X142527576Y-103049530D01*
X142531118Y-103056192D01*
X142632069Y-103246054D01*
X142633817Y-103249273D01*
X142635879Y-103252993D01*
X142637660Y-103256140D01*
X142653515Y-103283601D01*
X142748935Y-103448873D01*
X142750751Y-103451957D01*
X142752980Y-103455667D01*
X142754400Y-103457984D01*
X142754872Y-103458754D01*
X142872804Y-103647485D01*
X142874745Y-103650532D01*
X142877027Y-103654046D01*
X142879073Y-103657138D01*
X143003504Y-103841618D01*
X143005586Y-103844646D01*
X143008020Y-103848124D01*
X143010076Y-103851006D01*
X143140947Y-104031134D01*
X143143072Y-104034004D01*
X143143098Y-104034039D01*
X143145703Y-104037495D01*
X143147870Y-104040319D01*
X143147914Y-104040375D01*
X143284863Y-104215662D01*
X143287115Y-104218494D01*
X143289820Y-104221835D01*
X143292125Y-104224630D01*
X143435215Y-104395160D01*
X143437602Y-104397955D01*
X143440333Y-104401096D01*
X143442741Y-104403818D01*
X143477020Y-104441888D01*
X143591668Y-104569218D01*
X143591705Y-104569258D01*
X143594047Y-104571814D01*
X143597031Y-104575015D01*
X143599555Y-104577675D01*
X143754039Y-104737649D01*
X143756718Y-104740374D01*
X143759624Y-104743280D01*
X143759683Y-104743338D01*
X143759702Y-104743357D01*
X143762260Y-104745872D01*
X143762288Y-104745899D01*
X143762349Y-104745959D01*
X143922323Y-104900443D01*
X143925025Y-104903007D01*
X143928140Y-104905911D01*
X143930753Y-104908305D01*
X143934378Y-104911569D01*
X144096162Y-105057240D01*
X144098847Y-105059616D01*
X144102114Y-105062456D01*
X144104843Y-105064787D01*
X144263178Y-105197645D01*
X144275368Y-105207873D01*
X144278163Y-105210178D01*
X144281504Y-105212883D01*
X144281514Y-105212891D01*
X144284312Y-105215116D01*
X144459680Y-105352129D01*
X144462504Y-105354296D01*
X144465960Y-105356901D01*
X144465994Y-105356926D01*
X144468917Y-105359090D01*
X144592638Y-105448978D01*
X144648942Y-105489885D01*
X144651860Y-105491966D01*
X144655376Y-105494428D01*
X144658334Y-105496461D01*
X144842875Y-105620935D01*
X144845877Y-105622922D01*
X144849507Y-105625279D01*
X144852521Y-105627199D01*
X145041268Y-105745141D01*
X145044332Y-105747019D01*
X145048042Y-105749248D01*
X145051126Y-105751064D01*
X145243863Y-105862341D01*
X145246569Y-105863872D01*
X145246999Y-105864116D01*
X145250740Y-105866190D01*
X145250757Y-105866199D01*
X145253923Y-105867918D01*
X145450466Y-105972421D01*
X145453674Y-105974091D01*
X145453686Y-105974097D01*
X145457522Y-105976051D01*
X145460749Y-105977660D01*
X145641695Y-106065913D01*
X145660724Y-106075194D01*
X145663622Y-106076576D01*
X145663959Y-106076737D01*
X145665862Y-106077624D01*
X145667859Y-106078556D01*
X145671149Y-106080056D01*
X145874495Y-106170591D01*
X145877771Y-106172015D01*
X145881754Y-106173706D01*
X145885081Y-106175084D01*
X146091452Y-106258463D01*
X146094781Y-106259775D01*
X146098808Y-106261321D01*
X146102175Y-106262580D01*
X146311336Y-106338708D01*
X146314716Y-106339905D01*
X146314762Y-106339920D01*
X146314802Y-106339935D01*
X146318722Y-106341285D01*
X146318783Y-106341305D01*
X146318808Y-106341314D01*
X146322210Y-106342452D01*
X146400067Y-106367749D01*
X146533930Y-106411244D01*
X146537304Y-106412307D01*
X146537327Y-106412314D01*
X146541466Y-106413579D01*
X146544887Y-106414592D01*
X146758805Y-106475932D01*
X146761500Y-106476679D01*
X146762149Y-106476860D01*
X146762164Y-106476864D01*
X146762218Y-106476879D01*
X146766398Y-106478000D01*
X146769912Y-106478910D01*
X146985905Y-106532764D01*
X146985928Y-106532769D01*
X146985938Y-106532772D01*
X146989462Y-106533617D01*
X146992003Y-106534202D01*
X146993648Y-106534582D01*
X146997113Y-106535350D01*
X147214801Y-106581621D01*
X147218312Y-106582336D01*
X147222561Y-106583162D01*
X147226092Y-106583816D01*
X147226157Y-106583828D01*
X147367384Y-106608729D01*
X147445285Y-106622465D01*
X147448826Y-106623058D01*
X147453101Y-106623735D01*
X147453120Y-106623737D01*
X147453140Y-106623741D01*
X147454240Y-106623905D01*
X147456644Y-106624264D01*
X147593600Y-106643512D01*
X147676970Y-106655229D01*
X147676987Y-106655231D01*
X147677028Y-106655237D01*
X147680554Y-106655702D01*
X147684849Y-106656230D01*
X147688442Y-106656639D01*
X147895482Y-106678400D01*
X147909896Y-106679915D01*
X147913414Y-106680253D01*
X147915746Y-106680456D01*
X147917719Y-106680629D01*
X147921280Y-106680909D01*
X148143310Y-106696434D01*
X148146910Y-106696654D01*
X148151231Y-106696880D01*
X148154792Y-106697036D01*
X148154815Y-106697037D01*
X148377404Y-106704811D01*
X148377416Y-106704811D01*
X148377464Y-106704813D01*
X148380568Y-106704898D01*
X148384355Y-106704973D01*
X148387209Y-106705007D01*
X148387522Y-106705011D01*
X148402991Y-106705078D01*
X148498874Y-106705497D01*
X148499391Y-106705499D01*
X148499932Y-106705500D01*
X148499976Y-106705500D01*
X161499535Y-106705500D01*
X161499595Y-106705500D01*
X161499794Y-106705499D01*
X161500258Y-106705499D01*
X161500494Y-106705498D01*
X161500890Y-106705497D01*
X161501561Y-106705494D01*
X161582441Y-106705011D01*
X161586750Y-106704940D01*
X161589347Y-106704870D01*
X161591890Y-106704802D01*
X161591939Y-106704800D01*
X161591945Y-106704800D01*
X161596246Y-106704639D01*
X161758108Y-106696882D01*
X161763013Y-106696589D01*
X161768936Y-106696163D01*
X161773847Y-106695750D01*
X161934794Y-106680287D01*
X161939714Y-106679755D01*
X161945609Y-106679045D01*
X161950459Y-106678402D01*
X162110482Y-106655252D01*
X162115326Y-106654492D01*
X162121180Y-106653502D01*
X162126038Y-106652620D01*
X162284767Y-106621837D01*
X162289591Y-106620842D01*
X162289606Y-106620838D01*
X162289624Y-106620835D01*
X162295338Y-106619584D01*
X162295352Y-106619580D01*
X162295392Y-106619572D01*
X162300181Y-106618463D01*
X162457246Y-106580118D01*
X162462005Y-106578896D01*
X162467739Y-106577350D01*
X162472483Y-106576009D01*
X162627541Y-106530185D01*
X162632235Y-106528737D01*
X162637886Y-106526919D01*
X162642558Y-106525354D01*
X162795244Y-106472161D01*
X162795270Y-106472151D01*
X162795309Y-106472138D01*
X162798055Y-106471143D01*
X162799880Y-106470483D01*
X162805419Y-106468403D01*
X162809995Y-106466622D01*
X162959990Y-106406169D01*
X162964511Y-106404284D01*
X162969947Y-106401941D01*
X162974463Y-106399930D01*
X163121373Y-106332374D01*
X163125818Y-106330265D01*
X163131133Y-106327665D01*
X163135528Y-106325449D01*
X163279017Y-106250947D01*
X163283338Y-106248638D01*
X163288541Y-106245777D01*
X163292842Y-106243344D01*
X163432635Y-106162038D01*
X163436888Y-106159496D01*
X163441947Y-106156388D01*
X163446079Y-106153781D01*
X163581777Y-106065904D01*
X163585879Y-106063177D01*
X163590784Y-106059831D01*
X163594811Y-106057013D01*
X163726152Y-105962737D01*
X163730090Y-105959838D01*
X163734831Y-105956261D01*
X163738752Y-105953228D01*
X163757701Y-105938199D01*
X163767720Y-105930254D01*
X163767721Y-105930255D01*
X163865438Y-105852765D01*
X163869275Y-105849646D01*
X163873837Y-105845846D01*
X163877562Y-105842667D01*
X163982352Y-105751064D01*
X163999287Y-105736260D01*
X164002914Y-105733012D01*
X164002950Y-105732980D01*
X164007325Y-105728967D01*
X164010915Y-105725594D01*
X164127413Y-105613477D01*
X164130914Y-105610026D01*
X164135093Y-105605807D01*
X164138517Y-105602266D01*
X164249513Y-105484701D01*
X164252845Y-105481086D01*
X164254434Y-105479319D01*
X164256817Y-105476673D01*
X164258560Y-105474687D01*
X164260068Y-105472971D01*
X164365310Y-105350225D01*
X164368466Y-105346454D01*
X164372222Y-105341855D01*
X164375290Y-105338005D01*
X164474535Y-105210362D01*
X164477509Y-105206440D01*
X164481040Y-105201667D01*
X164483918Y-105197678D01*
X164576942Y-105065426D01*
X164579722Y-105061373D01*
X164583021Y-105056436D01*
X164585708Y-105052308D01*
X164672282Y-104915775D01*
X164674879Y-104911569D01*
X164677938Y-104906478D01*
X164680411Y-104902248D01*
X164760357Y-104761711D01*
X164762739Y-104757404D01*
X164765550Y-104752175D01*
X164767827Y-104747815D01*
X164767843Y-104747782D01*
X164767885Y-104747703D01*
X164840942Y-104603636D01*
X164840964Y-104603593D01*
X164843133Y-104599186D01*
X164845691Y-104593828D01*
X164847761Y-104589356D01*
X164913896Y-104441832D01*
X164915856Y-104437316D01*
X164918155Y-104431840D01*
X164920005Y-104427280D01*
X164979002Y-104276754D01*
X164980738Y-104272165D01*
X164982772Y-104266587D01*
X164984406Y-104261933D01*
X165036140Y-104108728D01*
X165037661Y-104104039D01*
X165039425Y-104098370D01*
X165040828Y-104093662D01*
X165040834Y-104093643D01*
X165062588Y-104017347D01*
X165085160Y-103938185D01*
X165086456Y-103933426D01*
X165087947Y-103927677D01*
X165089123Y-103922909D01*
X165125961Y-103765481D01*
X165127023Y-103760684D01*
X165128237Y-103754873D01*
X165129186Y-103750040D01*
X165158447Y-103591033D01*
X165159278Y-103586199D01*
X165160213Y-103580335D01*
X165160931Y-103575451D01*
X165182548Y-103415213D01*
X165183147Y-103410338D01*
X165183800Y-103404436D01*
X165184283Y-103399529D01*
X165198204Y-103238434D01*
X165198570Y-103233513D01*
X165198939Y-103227587D01*
X165199185Y-103222687D01*
X165205378Y-103061122D01*
X165205508Y-103056192D01*
X165205593Y-103050254D01*
X165205605Y-103045344D01*
X165204056Y-102883674D01*
X165203950Y-102878755D01*
X165203751Y-102872821D01*
X165203527Y-102867906D01*
X165194240Y-102706485D01*
X165193898Y-102701572D01*
X165193415Y-102695654D01*
X165192957Y-102690759D01*
X165175956Y-102529990D01*
X165175382Y-102525124D01*
X165175376Y-102525073D01*
X165174961Y-102521885D01*
X165174617Y-102519236D01*
X165173922Y-102514344D01*
X165149238Y-102354534D01*
X165148427Y-102349675D01*
X165147380Y-102343829D01*
X165146456Y-102339001D01*
X165114155Y-102180583D01*
X165113114Y-102175774D01*
X165113102Y-102175718D01*
X165111792Y-102170001D01*
X165110645Y-102165247D01*
X165107076Y-102151214D01*
X165070784Y-102008503D01*
X165069512Y-102003743D01*
X165067911Y-101998025D01*
X165066530Y-101993309D01*
X165023607Y-101853022D01*
X165019234Y-101838728D01*
X165019225Y-101838699D01*
X165017730Y-101834015D01*
X165015857Y-101828379D01*
X165014248Y-101823724D01*
X164959600Y-101671570D01*
X164957882Y-101666961D01*
X164955742Y-101661423D01*
X164953913Y-101656854D01*
X164907310Y-101544343D01*
X164892050Y-101507502D01*
X164890097Y-101502942D01*
X164890091Y-101502927D01*
X164887688Y-101497498D01*
X164885648Y-101493034D01*
X164885635Y-101493007D01*
X164885617Y-101492967D01*
X164816710Y-101346822D01*
X164814556Y-101342392D01*
X164814555Y-101342389D01*
X164811895Y-101337080D01*
X164809632Y-101332698D01*
X164733755Y-101189920D01*
X164731390Y-101185595D01*
X164728478Y-101180419D01*
X164726018Y-101176166D01*
X164643390Y-101037181D01*
X164640828Y-101032986D01*
X164637673Y-101027957D01*
X164635006Y-101023817D01*
X164545825Y-100888954D01*
X164543076Y-100884903D01*
X164543050Y-100884864D01*
X164539724Y-100880085D01*
X164536842Y-100876051D01*
X164536823Y-100876024D01*
X164441266Y-100745557D01*
X164441236Y-100745516D01*
X164438331Y-100741648D01*
X164434701Y-100736933D01*
X164431638Y-100733052D01*
X164329987Y-100607358D01*
X164326840Y-100603560D01*
X164322981Y-100599016D01*
X164322206Y-100598125D01*
X164319767Y-100595322D01*
X164212199Y-100474621D01*
X164208890Y-100470996D01*
X164204834Y-100466658D01*
X164201421Y-100463095D01*
X164193486Y-100455007D01*
X164097059Y-100356715D01*
X164088174Y-100347658D01*
X164084663Y-100344164D01*
X164080404Y-100340027D01*
X164076858Y-100336663D01*
X164076851Y-100336656D01*
X163958286Y-100226845D01*
X163954621Y-100223532D01*
X163950169Y-100219602D01*
X163946430Y-100216379D01*
X163822681Y-100112317D01*
X163818860Y-100109181D01*
X163814264Y-100105500D01*
X163814226Y-100105470D01*
X163810346Y-100102438D01*
X163791807Y-100088306D01*
X163681753Y-100004415D01*
X163677835Y-100001503D01*
X163677819Y-100001491D01*
X163673056Y-99998037D01*
X163669027Y-99995189D01*
X163563229Y-99922277D01*
X163535819Y-99903387D01*
X163531775Y-99900671D01*
X163526877Y-99897464D01*
X163522646Y-99894766D01*
X163385264Y-99809489D01*
X163381061Y-99806950D01*
X163375925Y-99803930D01*
X163371764Y-99801549D01*
X163230402Y-99722916D01*
X163230393Y-99722911D01*
X163230373Y-99722900D01*
X163226024Y-99720549D01*
X163226011Y-99720542D01*
X163220794Y-99717802D01*
X163216447Y-99715585D01*
X163198044Y-99706473D01*
X163071523Y-99643828D01*
X163067104Y-99641705D01*
X163061758Y-99639215D01*
X163057255Y-99637183D01*
X162972163Y-99600012D01*
X162909080Y-99572455D01*
X162904530Y-99570533D01*
X162899017Y-99568280D01*
X162894515Y-99566503D01*
X162864366Y-99555018D01*
X162743346Y-99508917D01*
X162738706Y-99507213D01*
X162733141Y-99505245D01*
X162733109Y-99505234D01*
X162728496Y-99503664D01*
X162574846Y-99453414D01*
X162570097Y-99451923D01*
X162564514Y-99450244D01*
X162559676Y-99448852D01*
X162403834Y-99406026D01*
X162403795Y-99406015D01*
X162403774Y-99406010D01*
X162402514Y-99405680D01*
X162398934Y-99404742D01*
X162393233Y-99403323D01*
X162388491Y-99402201D01*
X162230745Y-99366877D01*
X162225920Y-99365857D01*
X162220163Y-99364711D01*
X162217329Y-99364182D01*
X162215260Y-99363796D01*
X162152542Y-99352875D01*
X162055893Y-99336045D01*
X162051127Y-99335274D01*
X162048108Y-99334822D01*
X162045235Y-99334393D01*
X162040884Y-99333795D01*
X162040311Y-99333717D01*
X161879883Y-99313639D01*
X161875043Y-99313092D01*
X161875035Y-99313091D01*
X161874998Y-99313087D01*
X161872167Y-99312801D01*
X161869125Y-99312494D01*
X161864222Y-99312059D01*
X161756296Y-99303772D01*
X161702979Y-99299679D01*
X161701089Y-99299556D01*
X161698109Y-99299363D01*
X161698092Y-99299362D01*
X161698075Y-99299361D01*
X161692219Y-99299052D01*
X161692209Y-99299051D01*
X161692160Y-99299049D01*
X161687327Y-99298852D01*
X161525634Y-99294205D01*
X161520656Y-99294122D01*
X161514731Y-99294095D01*
X161514727Y-99294095D01*
X161514723Y-99294095D01*
X161509852Y-99294131D01*
X161509802Y-99294131D01*
X161509796Y-99294132D01*
X161348202Y-99297227D01*
X161343282Y-99297380D01*
X161337387Y-99297634D01*
X161332387Y-99297910D01*
X161171168Y-99308736D01*
X161171158Y-99308736D01*
X161171125Y-99308739D01*
X161168985Y-99308908D01*
X161166246Y-99309124D01*
X161163692Y-99309357D01*
X161160328Y-99309664D01*
X161160299Y-99309667D01*
X161155425Y-99310171D01*
X160994738Y-99328721D01*
X160989873Y-99329342D01*
X160984028Y-99330159D01*
X160979188Y-99330896D01*
X160947791Y-99336054D01*
X160819577Y-99357117D01*
X160819568Y-99357118D01*
X160819535Y-99357124D01*
X160814784Y-99357963D01*
X160808968Y-99359061D01*
X160804086Y-99360044D01*
X160646054Y-99393846D01*
X160646006Y-99393856D01*
X160645996Y-99393859D01*
X160641215Y-99394942D01*
X160641193Y-99394947D01*
X160635495Y-99396308D01*
X160630689Y-99397518D01*
X160514966Y-99428130D01*
X160474302Y-99438888D01*
X160474287Y-99438892D01*
X160474246Y-99438903D01*
X160469586Y-99440195D01*
X160466009Y-99441234D01*
X160463927Y-99441839D01*
X160459236Y-99443262D01*
X160459167Y-99443283D01*
X160305054Y-99492055D01*
X160300284Y-99493628D01*
X160294765Y-99495524D01*
X160294749Y-99495529D01*
X160294719Y-99495540D01*
X160292359Y-99496381D01*
X160290059Y-99497201D01*
X160138501Y-99553279D01*
X160133967Y-99555018D01*
X160131051Y-99556176D01*
X160128410Y-99557226D01*
X160128387Y-99557235D01*
X160128368Y-99557243D01*
X160123806Y-99559119D01*
X159975014Y-99622428D01*
X159970588Y-99624373D01*
X159965208Y-99626815D01*
X159960737Y-99628910D01*
X159815043Y-99699318D01*
X159810615Y-99701523D01*
X159805407Y-99704197D01*
X159801102Y-99706473D01*
X159658997Y-99783747D01*
X159654644Y-99786183D01*
X159649605Y-99789082D01*
X159645360Y-99791593D01*
X159507225Y-99875514D01*
X159502968Y-99878170D01*
X159498030Y-99881334D01*
X159493878Y-99884065D01*
X159359800Y-99974585D01*
X159355865Y-99977312D01*
X159351056Y-99980728D01*
X159347058Y-99983642D01*
X159217474Y-100080470D01*
X159213618Y-100083425D01*
X159208993Y-100087055D01*
X159207439Y-100088306D01*
X159205099Y-100090189D01*
X159177927Y-100112598D01*
X159080316Y-100193096D01*
X159076531Y-100196295D01*
X159072100Y-100200132D01*
X159068425Y-100203391D01*
X158956037Y-100305500D01*
X158948462Y-100312383D01*
X158947422Y-100313347D01*
X158945276Y-100315337D01*
X158941558Y-100318861D01*
X158938471Y-100321847D01*
X158880760Y-100378877D01*
X158880731Y-100378906D01*
X154951856Y-104258730D01*
X154890323Y-104291829D01*
X154864727Y-104294500D01*
X148500808Y-104294500D01*
X148500149Y-104294498D01*
X148411689Y-104294028D01*
X148407085Y-104293918D01*
X148229309Y-104286366D01*
X148224056Y-104286031D01*
X148047630Y-104271015D01*
X148042396Y-104270458D01*
X147866767Y-104247968D01*
X147861560Y-104247188D01*
X147687072Y-104217268D01*
X147681905Y-104216269D01*
X147508788Y-104178960D01*
X147503667Y-104177742D01*
X147332339Y-104133132D01*
X147327274Y-104131698D01*
X147157979Y-104079852D01*
X147152980Y-104078204D01*
X146986000Y-104019206D01*
X146981075Y-104017347D01*
X146816828Y-103951347D01*
X146811986Y-103949281D01*
X146650635Y-103876345D01*
X146645887Y-103874076D01*
X146487765Y-103794354D01*
X146483114Y-103791884D01*
X146328564Y-103705546D01*
X146324028Y-103702884D01*
X146324025Y-103702883D01*
X146256257Y-103661157D01*
X146244813Y-103654111D01*
X146173259Y-103610054D01*
X146168835Y-103607199D01*
X146022107Y-103508028D01*
X146017809Y-103504988D01*
X145875494Y-103399731D01*
X145871331Y-103396513D01*
X145733532Y-103285250D01*
X145729506Y-103281856D01*
X145700287Y-103256140D01*
X145596605Y-103164887D01*
X145592730Y-103161328D01*
X145464903Y-103038817D01*
X145461180Y-103035094D01*
X145338659Y-102907257D01*
X145335099Y-102903381D01*
X145218142Y-102770494D01*
X145214758Y-102766479D01*
X145103485Y-102628667D01*
X145100267Y-102624504D01*
X145022410Y-102519236D01*
X144995005Y-102482182D01*
X144991970Y-102477891D01*
X144892801Y-102331165D01*
X144889946Y-102326742D01*
X144802846Y-102185283D01*
X144797134Y-102176005D01*
X144794474Y-102171472D01*
X144708098Y-102016854D01*
X144705639Y-102012224D01*
X144625928Y-101854123D01*
X144623659Y-101849376D01*
X144609841Y-101818808D01*
X144550707Y-101687991D01*
X144548657Y-101683187D01*
X144482640Y-101518896D01*
X144480802Y-101514028D01*
X144421783Y-101346987D01*
X144420159Y-101342060D01*
X144370661Y-101180434D01*
X144368296Y-101172711D01*
X144366862Y-101167646D01*
X144322248Y-100996302D01*
X144321045Y-100991243D01*
X144284024Y-100819460D01*
X144283729Y-100818093D01*
X144282730Y-100812926D01*
X144270504Y-100741623D01*
X144252812Y-100638448D01*
X144252034Y-100633253D01*
X144245050Y-100578719D01*
X144229539Y-100457592D01*
X144228983Y-100452367D01*
X144213964Y-100275923D01*
X144213631Y-100270686D01*
X144213407Y-100265403D01*
X144206077Y-100092871D01*
X144205970Y-100088348D01*
X144205502Y-99999900D01*
X144205500Y-99999245D01*
X144205500Y-97000840D01*
X144205500Y-97000675D01*
X144205497Y-96999494D01*
X144205489Y-96998102D01*
X144205489Y-96998071D01*
X144205481Y-96997121D01*
X144205038Y-96957681D01*
X144204790Y-96949626D01*
X144204299Y-96939908D01*
X144203734Y-96931862D01*
X144203733Y-96931843D01*
X144196620Y-96852817D01*
X144195586Y-96843644D01*
X144194092Y-96832619D01*
X144192651Y-96823520D01*
X144178612Y-96746159D01*
X144176765Y-96737138D01*
X144174290Y-96726291D01*
X144172034Y-96717337D01*
X144151111Y-96641522D01*
X144148456Y-96632682D01*
X144145017Y-96622099D01*
X144141973Y-96613399D01*
X144114343Y-96539781D01*
X144110910Y-96531222D01*
X144110904Y-96531208D01*
X144110896Y-96531188D01*
X144106543Y-96521004D01*
X144102727Y-96512604D01*
X144102723Y-96512595D01*
X144068603Y-96441745D01*
X144066911Y-96438424D01*
X144064416Y-96433526D01*
X144059162Y-96423762D01*
X144054582Y-96415690D01*
X144014269Y-96348216D01*
X144009351Y-96340389D01*
X144003206Y-96331081D01*
X143998000Y-96323567D01*
X143997988Y-96323551D01*
X143997978Y-96323536D01*
X143951753Y-96259912D01*
X143951728Y-96259879D01*
X143946191Y-96252606D01*
X143939220Y-96243864D01*
X143933331Y-96236810D01*
X143933318Y-96236795D01*
X143881584Y-96177581D01*
X143875362Y-96170774D01*
X143875333Y-96170744D01*
X143867668Y-96162726D01*
X143861157Y-96156216D01*
X143804322Y-96101876D01*
X143804317Y-96101871D01*
X143804304Y-96101859D01*
X143797492Y-96095633D01*
X143797469Y-96095613D01*
X143789120Y-96088318D01*
X143782043Y-96082410D01*
X143720557Y-96033377D01*
X143720550Y-96033372D01*
X143713218Y-96027789D01*
X143713197Y-96027773D01*
X143704231Y-96021259D01*
X143696631Y-96015994D01*
X143631013Y-95972680D01*
X143623203Y-95967773D01*
X143613662Y-95962072D01*
X143605641Y-95957521D01*
X143536379Y-95920250D01*
X143528163Y-95916063D01*
X143518163Y-95911248D01*
X143518144Y-95911239D01*
X143517086Y-95910758D01*
X143509753Y-95907427D01*
X143472880Y-95891667D01*
X143437440Y-95876519D01*
X143437418Y-95876510D01*
X143428897Y-95873091D01*
X143418491Y-95869184D01*
X143409761Y-95866129D01*
X143334979Y-95841832D01*
X143334974Y-95841830D01*
X143334954Y-95841824D01*
X143326101Y-95839166D01*
X143326100Y-95839165D01*
X143326081Y-95839160D01*
X143315404Y-95836215D01*
X143315402Y-95836214D01*
X143315393Y-95836212D01*
X143310430Y-95834961D01*
X143306433Y-95833955D01*
X143229825Y-95816471D01*
X143220789Y-95814620D01*
X143209845Y-95812632D01*
X143200748Y-95811191D01*
X143122730Y-95800623D01*
X143113592Y-95799593D01*
X143102556Y-95798600D01*
X143093359Y-95797980D01*
X143014777Y-95794452D01*
X143007484Y-95794288D01*
X143005544Y-95794245D01*
X142994456Y-95794245D01*
X142992612Y-95794286D01*
X142985222Y-95794452D01*
X142906630Y-95797981D01*
X142897482Y-95798597D01*
X142891233Y-95799159D01*
X142886408Y-95799594D01*
X142886391Y-95799595D01*
X142886390Y-95799596D01*
X142877252Y-95800625D01*
X142799237Y-95811193D01*
X142790164Y-95812630D01*
X142779220Y-95814618D01*
X142770163Y-95816473D01*
X142693526Y-95833964D01*
X142684605Y-95836210D01*
X142673897Y-95839165D01*
X142665037Y-95841826D01*
X142590240Y-95866130D01*
X142581503Y-95869186D01*
X142571151Y-95873072D01*
X142571117Y-95873085D01*
X142571116Y-95873086D01*
X142562565Y-95876517D01*
X142490249Y-95907426D01*
X142490247Y-95907427D01*
X142490224Y-95907437D01*
X142481838Y-95911246D01*
X142471828Y-95916067D01*
X142463622Y-95920248D01*
X142412880Y-95947553D01*
X142394362Y-95957519D01*
X142394357Y-95957522D01*
X142386355Y-95962062D01*
X142376841Y-95967745D01*
X142376826Y-95967754D01*
X142376820Y-95967758D01*
X142368990Y-95972677D01*
X142368973Y-95972687D01*
X142368959Y-95972697D01*
X142303357Y-96016000D01*
X142295799Y-96021236D01*
X142286771Y-96027795D01*
X142279461Y-96033361D01*
X142217953Y-96082413D01*
X142210843Y-96088348D01*
X142202529Y-96095613D01*
X142195694Y-96101860D01*
X142138821Y-96156236D01*
X142132349Y-96162708D01*
X142132337Y-96162720D01*
X142132326Y-96162732D01*
X142124659Y-96170748D01*
X142118428Y-96177565D01*
X142066656Y-96236824D01*
X142060765Y-96243879D01*
X142053975Y-96252394D01*
X142053850Y-96252552D01*
X142053832Y-96252576D01*
X142048242Y-96259916D01*
X142002020Y-96323535D01*
X141996761Y-96331127D01*
X141992365Y-96337787D01*
X141990660Y-96340371D01*
X141990649Y-96340389D01*
X141985744Y-96348194D01*
X141945399Y-96415721D01*
X141940843Y-96423750D01*
X141935595Y-96433501D01*
X141931387Y-96441762D01*
X141897281Y-96512584D01*
X141893456Y-96521002D01*
X141889090Y-96531219D01*
X141885661Y-96539769D01*
X141858019Y-96613417D01*
X141854972Y-96622125D01*
X141851543Y-96632675D01*
X141848888Y-96641517D01*
X141827964Y-96717333D01*
X141825701Y-96726319D01*
X141823234Y-96737130D01*
X141821387Y-96746160D01*
X141807346Y-96823525D01*
X141805906Y-96832621D01*
X141804415Y-96843620D01*
X141803378Y-96852818D01*
X141796263Y-96931876D01*
X141795699Y-96939901D01*
X141795208Y-96949633D01*
X141794960Y-96957692D01*
X141794522Y-96996846D01*
X141794510Y-96998097D01*
X141794504Y-96999299D01*
X141794503Y-96999491D01*
X141794503Y-96999494D01*
X141794500Y-97000840D01*
X135900500Y-97000840D01*
X135900500Y-94147844D01*
X146199999Y-94147844D01*
X146206400Y-94207372D01*
X146206402Y-94207379D01*
X146256644Y-94342086D01*
X146256648Y-94342093D01*
X146342808Y-94457187D01*
X146342811Y-94457190D01*
X146457905Y-94543350D01*
X146457912Y-94543354D01*
X146592619Y-94593596D01*
X146592626Y-94593598D01*
X146652154Y-94599999D01*
X146652171Y-94600000D01*
X146899999Y-94600000D01*
X147149999Y-94600000D01*
X147397827Y-94600000D01*
X147397843Y-94599999D01*
X147457371Y-94593598D01*
X147457378Y-94593596D01*
X147592085Y-94543354D01*
X147592092Y-94543350D01*
X147707186Y-94457190D01*
X147707189Y-94457187D01*
X147793349Y-94342093D01*
X147793353Y-94342086D01*
X147843595Y-94207379D01*
X147843597Y-94207372D01*
X147849998Y-94147844D01*
X147849999Y-94147827D01*
X147849999Y-93125000D01*
X147149999Y-93125000D01*
X147149999Y-94600000D01*
X146899999Y-94600000D01*
X146899999Y-93125000D01*
X146199999Y-93125000D01*
X146199999Y-94147844D01*
X135900500Y-94147844D01*
X135900500Y-93611525D01*
X142065249Y-93611525D01*
X142065249Y-93611526D01*
X142144743Y-93664642D01*
X142281232Y-93721177D01*
X142281240Y-93721179D01*
X142426126Y-93749999D01*
X142426129Y-93750000D01*
X142573871Y-93750000D01*
X142573873Y-93749999D01*
X142718759Y-93721179D01*
X142718767Y-93721177D01*
X142855255Y-93664642D01*
X142934749Y-93611525D01*
X142500001Y-93176776D01*
X142500000Y-93176776D01*
X142065249Y-93611525D01*
X135900500Y-93611525D01*
X135900500Y-92926126D01*
X141750000Y-92926126D01*
X141750000Y-93073873D01*
X141778820Y-93218759D01*
X141778822Y-93218767D01*
X141835358Y-93355256D01*
X141888473Y-93434749D01*
X141888474Y-93434750D01*
X142323224Y-93000000D01*
X142323224Y-92999999D01*
X142676776Y-92999999D01*
X142676776Y-93000000D01*
X143111525Y-93434749D01*
X143164642Y-93355255D01*
X143221177Y-93218767D01*
X143221179Y-93218759D01*
X143249999Y-93073873D01*
X143250000Y-93073871D01*
X143250000Y-92926128D01*
X143249999Y-92926126D01*
X143221179Y-92781240D01*
X143221177Y-92781232D01*
X143164642Y-92644743D01*
X143111525Y-92565249D01*
X142676776Y-92999999D01*
X142323224Y-92999999D01*
X141888473Y-92565248D01*
X141888472Y-92565249D01*
X141835359Y-92644741D01*
X141778822Y-92781232D01*
X141778820Y-92781240D01*
X141750000Y-92926126D01*
X135900500Y-92926126D01*
X135900500Y-92388473D01*
X142065248Y-92388473D01*
X142500000Y-92823224D01*
X142500001Y-92823224D01*
X142934750Y-92388474D01*
X142934749Y-92388473D01*
X142855256Y-92335358D01*
X142718767Y-92278822D01*
X142718759Y-92278820D01*
X142573872Y-92250000D01*
X142426128Y-92250000D01*
X142281240Y-92278820D01*
X142281232Y-92278822D01*
X142144741Y-92335359D01*
X142065249Y-92388472D01*
X142065248Y-92388473D01*
X135900500Y-92388473D01*
X135900500Y-91852155D01*
X146199999Y-91852155D01*
X146199999Y-92875000D01*
X146899999Y-92875000D01*
X147149999Y-92875000D01*
X147849999Y-92875000D01*
X147849999Y-91852171D01*
X147849998Y-91852157D01*
X147849307Y-91845730D01*
X149199501Y-91845730D01*
X149199501Y-94154269D01*
X149202354Y-94184699D01*
X149202354Y-94184701D01*
X149247207Y-94312880D01*
X149247208Y-94312882D01*
X149327851Y-94422150D01*
X149437119Y-94502793D01*
X149479846Y-94517744D01*
X149565300Y-94547646D01*
X149595731Y-94550500D01*
X149595735Y-94550500D01*
X150354271Y-94550500D01*
X150384700Y-94547646D01*
X150384702Y-94547646D01*
X150448791Y-94525219D01*
X150512883Y-94502793D01*
X150622151Y-94422150D01*
X150702794Y-94312882D01*
X150739711Y-94207379D01*
X150747647Y-94184701D01*
X150747647Y-94184699D01*
X150750501Y-94154269D01*
X150750501Y-93574500D01*
X150770186Y-93507461D01*
X150822990Y-93461706D01*
X150874501Y-93450500D01*
X153908482Y-93450500D01*
X153975521Y-93470185D01*
X153996158Y-93486814D01*
X154053458Y-93544114D01*
X154053459Y-93544115D01*
X154168182Y-93620771D01*
X154168195Y-93620778D01*
X154295667Y-93673578D01*
X154295672Y-93673580D01*
X154295676Y-93673580D01*
X154295677Y-93673581D01*
X154431004Y-93700500D01*
X154431007Y-93700500D01*
X154568995Y-93700500D01*
X154660041Y-93682389D01*
X154704328Y-93673580D01*
X154831811Y-93620775D01*
X154946542Y-93544114D01*
X155003838Y-93486817D01*
X155065159Y-93453334D01*
X155091518Y-93450500D01*
X159648230Y-93450500D01*
X159691922Y-93445194D01*
X159942522Y-93414766D01*
X160230364Y-93343820D01*
X160507555Y-93238695D01*
X160770054Y-93100926D01*
X161014032Y-92932519D01*
X161235933Y-92735933D01*
X161432519Y-92514032D01*
X161600926Y-92270054D01*
X161738695Y-92007555D01*
X161843820Y-91730364D01*
X161914766Y-91442522D01*
X161950500Y-91148228D01*
X161950500Y-91000000D01*
X161950500Y-90940690D01*
X161950500Y-80479273D01*
X161970185Y-80412234D01*
X162022989Y-80366479D01*
X162050307Y-80357656D01*
X162103590Y-80347057D01*
X162327230Y-80302574D01*
X162327241Y-80302571D01*
X162327241Y-80302570D01*
X162327251Y-80302569D01*
X162646976Y-80205582D01*
X162955654Y-80077723D01*
X163250315Y-79920224D01*
X163528118Y-79734601D01*
X163786390Y-79522643D01*
X164022643Y-79286390D01*
X164234601Y-79028118D01*
X164420224Y-78750315D01*
X164577723Y-78455654D01*
X164705582Y-78146976D01*
X164802569Y-77827251D01*
X164802571Y-77827241D01*
X164802574Y-77827230D01*
X164839520Y-77641485D01*
X164867751Y-77499559D01*
X164900500Y-77167056D01*
X164900500Y-76832944D01*
X164867751Y-76500441D01*
X164842100Y-76371484D01*
X164802574Y-76172769D01*
X164802571Y-76172758D01*
X164802570Y-76172755D01*
X164802569Y-76172749D01*
X164705582Y-75853024D01*
X164577723Y-75544346D01*
X164420224Y-75249685D01*
X164234601Y-74971882D01*
X164022643Y-74713610D01*
X164022642Y-74713609D01*
X164022638Y-74713604D01*
X163786395Y-74477361D01*
X163528123Y-74265403D01*
X163528122Y-74265402D01*
X163528118Y-74265399D01*
X163250315Y-74079776D01*
X163250310Y-74079773D01*
X163250303Y-74079769D01*
X162955661Y-73922280D01*
X162955656Y-73922278D01*
X162646977Y-73794418D01*
X162327241Y-73697428D01*
X162327230Y-73697425D01*
X161999565Y-73632250D01*
X161999548Y-73632247D01*
X161748108Y-73607483D01*
X161667056Y-73599500D01*
X161332944Y-73599500D01*
X161257982Y-73606883D01*
X161000451Y-73632247D01*
X161000434Y-73632250D01*
X160672769Y-73697425D01*
X160672758Y-73697428D01*
X160353022Y-73794418D01*
X160044343Y-73922278D01*
X160044338Y-73922280D01*
X159749696Y-74079769D01*
X159749678Y-74079780D01*
X159471890Y-74265393D01*
X159471876Y-74265403D01*
X159213604Y-74477361D01*
X158977361Y-74713604D01*
X158765403Y-74971876D01*
X158765393Y-74971890D01*
X158579780Y-75249678D01*
X158579769Y-75249696D01*
X158422280Y-75544338D01*
X158422278Y-75544343D01*
X158294418Y-75853022D01*
X158197428Y-76172758D01*
X158197425Y-76172769D01*
X158132250Y-76500434D01*
X158132247Y-76500451D01*
X158106883Y-76757982D01*
X158100280Y-76825032D01*
X158099500Y-76832947D01*
X158099500Y-77167052D01*
X158132247Y-77499548D01*
X158132250Y-77499565D01*
X158197425Y-77827230D01*
X158197428Y-77827241D01*
X158294418Y-78146977D01*
X158422278Y-78455656D01*
X158422280Y-78455661D01*
X158579769Y-78750303D01*
X158579780Y-78750321D01*
X158765393Y-79028109D01*
X158765403Y-79028123D01*
X158977361Y-79286395D01*
X159213604Y-79522638D01*
X159213609Y-79522642D01*
X159213610Y-79522643D01*
X159471882Y-79734601D01*
X159749685Y-79920224D01*
X159749694Y-79920229D01*
X159749696Y-79920230D01*
X160044338Y-80077719D01*
X160044340Y-80077719D01*
X160044346Y-80077723D01*
X160353024Y-80205582D01*
X160672749Y-80302569D01*
X160672755Y-80302570D01*
X160672758Y-80302571D01*
X160672769Y-80302574D01*
X160905112Y-80348788D01*
X160949691Y-80357656D01*
X161011602Y-80390040D01*
X161046176Y-80450756D01*
X161049500Y-80479273D01*
X161049500Y-87703977D01*
X161029815Y-87771016D01*
X160977011Y-87816771D01*
X160907853Y-87826715D01*
X160844297Y-87797690D01*
X160826234Y-87778289D01*
X160792187Y-87732809D01*
X160677093Y-87646649D01*
X160677086Y-87646645D01*
X160542379Y-87596403D01*
X160542372Y-87596401D01*
X160482844Y-87590000D01*
X160247500Y-87590000D01*
X160247500Y-89840000D01*
X160482828Y-89840000D01*
X160482844Y-89839999D01*
X160542372Y-89833598D01*
X160542379Y-89833596D01*
X160677086Y-89783354D01*
X160677093Y-89783350D01*
X160792186Y-89697191D01*
X160826233Y-89651711D01*
X160882167Y-89609840D01*
X160951859Y-89604856D01*
X161013182Y-89638341D01*
X161046666Y-89699664D01*
X161049500Y-89726022D01*
X161049500Y-90995572D01*
X161049184Y-91004419D01*
X161034360Y-91211673D01*
X161031842Y-91229184D01*
X160988620Y-91427875D01*
X160983636Y-91444850D01*
X160912573Y-91635378D01*
X160905223Y-91651472D01*
X160807774Y-91829937D01*
X160798209Y-91844821D01*
X160676346Y-92007610D01*
X160664760Y-92020980D01*
X160520980Y-92164760D01*
X160507610Y-92176346D01*
X160344821Y-92298209D01*
X160329937Y-92307774D01*
X160151472Y-92405223D01*
X160135378Y-92412573D01*
X159944850Y-92483636D01*
X159927875Y-92488620D01*
X159729184Y-92531842D01*
X159711673Y-92534360D01*
X159524686Y-92547734D01*
X159504417Y-92549184D01*
X159495572Y-92549500D01*
X155091518Y-92549500D01*
X155024479Y-92529815D01*
X155003841Y-92513185D01*
X154946542Y-92455886D01*
X154946541Y-92455885D01*
X154946540Y-92455884D01*
X154831817Y-92379228D01*
X154831804Y-92379221D01*
X154704332Y-92326421D01*
X154704322Y-92326418D01*
X154568995Y-92299500D01*
X154568993Y-92299500D01*
X154431007Y-92299500D01*
X154431005Y-92299500D01*
X154295677Y-92326418D01*
X154295667Y-92326421D01*
X154168195Y-92379221D01*
X154168182Y-92379228D01*
X154053459Y-92455884D01*
X154032333Y-92477011D01*
X153996161Y-92513182D01*
X153934841Y-92546666D01*
X153908482Y-92549500D01*
X150874501Y-92549500D01*
X150807462Y-92529815D01*
X150761707Y-92477011D01*
X150750501Y-92425500D01*
X150750501Y-91845730D01*
X150747647Y-91815300D01*
X150747647Y-91815298D01*
X150702794Y-91687119D01*
X150702793Y-91687117D01*
X150622151Y-91577850D01*
X150512883Y-91497207D01*
X150512882Y-91497206D01*
X150505406Y-91491689D01*
X150506862Y-91489716D01*
X150466480Y-91450410D01*
X150450500Y-91389519D01*
X150450500Y-91006960D01*
X150451280Y-90993077D01*
X150457182Y-90940691D01*
X150462712Y-90891606D01*
X150468888Y-90864544D01*
X150500304Y-90774762D01*
X150512347Y-90749755D01*
X150562953Y-90669215D01*
X150580260Y-90647514D01*
X150647514Y-90580260D01*
X150669215Y-90562953D01*
X150749755Y-90512347D01*
X150774762Y-90500304D01*
X150864544Y-90468888D01*
X150891606Y-90462712D01*
X150993077Y-90451279D01*
X151006960Y-90450500D01*
X151059307Y-90450500D01*
X151059309Y-90450500D01*
X151086549Y-90443201D01*
X151099527Y-90439724D01*
X151131619Y-90435499D01*
X152062948Y-90435499D01*
X152117407Y-90448097D01*
X152173607Y-90475572D01*
X152207673Y-90480535D01*
X152241739Y-90485499D01*
X152241740Y-90485499D01*
X154058261Y-90485499D01*
X154080971Y-90482190D01*
X154126393Y-90475572D01*
X154231483Y-90424197D01*
X154314198Y-90341482D01*
X154365573Y-90236392D01*
X154375500Y-90168259D01*
X154375500Y-89801739D01*
X154373862Y-89790500D01*
X154369334Y-89759421D01*
X154365573Y-89733606D01*
X154314198Y-89628516D01*
X154314196Y-89628514D01*
X154314196Y-89628513D01*
X154231485Y-89545802D01*
X154126391Y-89494425D01*
X154058261Y-89484499D01*
X154058260Y-89484499D01*
X152241740Y-89484499D01*
X152241739Y-89484499D01*
X152173608Y-89494425D01*
X152117408Y-89521900D01*
X152062948Y-89534499D01*
X150955690Y-89534499D01*
X150915474Y-89545275D01*
X150890660Y-89548541D01*
X150890706Y-89549117D01*
X150885845Y-89549499D01*
X150660339Y-89585216D01*
X150660336Y-89585216D01*
X150443203Y-89655767D01*
X150239771Y-89759421D01*
X150181526Y-89801739D01*
X150055063Y-89893620D01*
X150055061Y-89893622D01*
X150055060Y-89893622D01*
X149893622Y-90055060D01*
X149893622Y-90055061D01*
X149893620Y-90055063D01*
X149853707Y-90109999D01*
X149759421Y-90239771D01*
X149655767Y-90443203D01*
X149585216Y-90660336D01*
X149585216Y-90660339D01*
X149549500Y-90885843D01*
X149549500Y-91369900D01*
X149529815Y-91436939D01*
X149477011Y-91482694D01*
X149466457Y-91486941D01*
X149437118Y-91497207D01*
X149327851Y-91577850D01*
X149247208Y-91687117D01*
X149247207Y-91687119D01*
X149202354Y-91815298D01*
X149202354Y-91815300D01*
X149199501Y-91845730D01*
X147849307Y-91845730D01*
X147843597Y-91792627D01*
X147843595Y-91792620D01*
X147793353Y-91657913D01*
X147793349Y-91657906D01*
X147707189Y-91542812D01*
X147707186Y-91542809D01*
X147592092Y-91456649D01*
X147592085Y-91456645D01*
X147457378Y-91406403D01*
X147457371Y-91406401D01*
X147397843Y-91400000D01*
X147149999Y-91400000D01*
X147149999Y-92875000D01*
X146899999Y-92875000D01*
X146899999Y-91400000D01*
X146652154Y-91400000D01*
X146592626Y-91406401D01*
X146592619Y-91406403D01*
X146457912Y-91456645D01*
X146457905Y-91456649D01*
X146342811Y-91542809D01*
X146342808Y-91542812D01*
X146256648Y-91657906D01*
X146256644Y-91657913D01*
X146206402Y-91792620D01*
X146206400Y-91792627D01*
X146199999Y-91852155D01*
X135900500Y-91852155D01*
X135900500Y-90220412D01*
X135900972Y-90209605D01*
X135904589Y-90168259D01*
X135904745Y-90166478D01*
X142575001Y-90166478D01*
X142589835Y-90260148D01*
X142589837Y-90260154D01*
X142647356Y-90373040D01*
X142647363Y-90373049D01*
X142736949Y-90462635D01*
X142736953Y-90462638D01*
X142849855Y-90520165D01*
X142943514Y-90534998D01*
X143724999Y-90534998D01*
X143975000Y-90534998D01*
X144756479Y-90534998D01*
X144850149Y-90520163D01*
X144850155Y-90520161D01*
X144963041Y-90462642D01*
X144963050Y-90462635D01*
X145052636Y-90373049D01*
X145052639Y-90373045D01*
X145110166Y-90260143D01*
X145125000Y-90166485D01*
X145125000Y-90109999D01*
X143975000Y-90109999D01*
X143975000Y-90534998D01*
X143724999Y-90534998D01*
X143725000Y-90534997D01*
X143725000Y-90109999D01*
X142575001Y-90109999D01*
X142575001Y-90166478D01*
X135904745Y-90166478D01*
X135916259Y-90034873D01*
X135920011Y-90013598D01*
X135952158Y-89893622D01*
X135964002Y-89849418D01*
X135971388Y-89829125D01*
X136043223Y-89675074D01*
X136054023Y-89656369D01*
X136151516Y-89517134D01*
X136165399Y-89500589D01*
X136285589Y-89380399D01*
X136302134Y-89366516D01*
X136441369Y-89269023D01*
X136460074Y-89258223D01*
X136614125Y-89186388D01*
X136634418Y-89179002D01*
X136798598Y-89135010D01*
X136819881Y-89131258D01*
X136994605Y-89115971D01*
X137005412Y-89115500D01*
X137057583Y-89115500D01*
X142678456Y-89115500D01*
X142736231Y-89129782D01*
X142752854Y-89138535D01*
X142768517Y-89154198D01*
X142873607Y-89205573D01*
X142882669Y-89206893D01*
X142899648Y-89215834D01*
X142916800Y-89232475D01*
X142936720Y-89245677D01*
X142941417Y-89256359D01*
X142949795Y-89264487D01*
X142955227Y-89287761D01*
X142964847Y-89309635D01*
X142963023Y-89321161D01*
X142965677Y-89332528D01*
X142957664Y-89355043D01*
X142953931Y-89378647D01*
X142946164Y-89387358D01*
X142942252Y-89398354D01*
X142923338Y-89412963D01*
X142907437Y-89430801D01*
X142893529Y-89435989D01*
X142886958Y-89441066D01*
X142877792Y-89441860D01*
X142861271Y-89448025D01*
X142849855Y-89449833D01*
X142849844Y-89449836D01*
X142736958Y-89507355D01*
X142736949Y-89507362D01*
X142647363Y-89596948D01*
X142647360Y-89596952D01*
X142589833Y-89709854D01*
X142575000Y-89803512D01*
X142575000Y-89859999D01*
X145124999Y-89859999D01*
X145124999Y-89803519D01*
X145110164Y-89709849D01*
X145110162Y-89709843D01*
X145052643Y-89596957D01*
X145052636Y-89596948D01*
X144963050Y-89507362D01*
X144963046Y-89507359D01*
X144850145Y-89449833D01*
X144838724Y-89448024D01*
X144775591Y-89418091D01*
X144738662Y-89358778D01*
X144739662Y-89288916D01*
X144778275Y-89230685D01*
X144821528Y-89207075D01*
X144826380Y-89205574D01*
X144826393Y-89205573D01*
X144931483Y-89154198D01*
X145014198Y-89071483D01*
X145065573Y-88966393D01*
X145075500Y-88898260D01*
X145075500Y-88531740D01*
X145075500Y-88531739D01*
X151924500Y-88531739D01*
X151924500Y-88898260D01*
X151934426Y-88966391D01*
X151985803Y-89071485D01*
X152068514Y-89154196D01*
X152068515Y-89154196D01*
X152068517Y-89154198D01*
X152173607Y-89205573D01*
X152207673Y-89210536D01*
X152241739Y-89215500D01*
X152241740Y-89215500D01*
X154058261Y-89215500D01*
X154080971Y-89212191D01*
X154126393Y-89205573D01*
X154231483Y-89154198D01*
X154231485Y-89154196D01*
X154233863Y-89151819D01*
X154237914Y-89149606D01*
X154239847Y-89148227D01*
X154240013Y-89148460D01*
X154295186Y-89118334D01*
X154321544Y-89115500D01*
X156310500Y-89115500D01*
X156377539Y-89135185D01*
X156423294Y-89187989D01*
X156434500Y-89239500D01*
X156434500Y-89394269D01*
X156437353Y-89424699D01*
X156437353Y-89424701D01*
X156482206Y-89552880D01*
X156482207Y-89552882D01*
X156562850Y-89662150D01*
X156672118Y-89742793D01*
X156714845Y-89757744D01*
X156800299Y-89787646D01*
X156830730Y-89790500D01*
X156830734Y-89790500D01*
X157564270Y-89790500D01*
X157594699Y-89787646D01*
X157594701Y-89787646D01*
X157658790Y-89765219D01*
X157722882Y-89742793D01*
X157832150Y-89662150D01*
X157912793Y-89552882D01*
X157936721Y-89484499D01*
X157957646Y-89424701D01*
X157957646Y-89424699D01*
X157960500Y-89394269D01*
X157960500Y-89387844D01*
X159310000Y-89387844D01*
X159316401Y-89447372D01*
X159316403Y-89447379D01*
X159366645Y-89582086D01*
X159366649Y-89582093D01*
X159452809Y-89697187D01*
X159452812Y-89697190D01*
X159567906Y-89783350D01*
X159567913Y-89783354D01*
X159702620Y-89833596D01*
X159702627Y-89833598D01*
X159762155Y-89839999D01*
X159762172Y-89840000D01*
X159997500Y-89840000D01*
X159997500Y-88840000D01*
X159310000Y-88840000D01*
X159310000Y-89387844D01*
X157960500Y-89387844D01*
X157960500Y-88042155D01*
X159310000Y-88042155D01*
X159310000Y-88590000D01*
X159997500Y-88590000D01*
X159997500Y-87590000D01*
X159762155Y-87590000D01*
X159702627Y-87596401D01*
X159702620Y-87596403D01*
X159567913Y-87646645D01*
X159567906Y-87646649D01*
X159452812Y-87732809D01*
X159452809Y-87732812D01*
X159366649Y-87847906D01*
X159366645Y-87847913D01*
X159316403Y-87982620D01*
X159316401Y-87982627D01*
X159310000Y-88042155D01*
X157960500Y-88042155D01*
X157960500Y-88035730D01*
X157957646Y-88005300D01*
X157957646Y-88005298D01*
X157915270Y-87884198D01*
X157912793Y-87877118D01*
X157832150Y-87767850D01*
X157722882Y-87687207D01*
X157722880Y-87687206D01*
X157594700Y-87642353D01*
X157564270Y-87639500D01*
X157564266Y-87639500D01*
X156830734Y-87639500D01*
X156830730Y-87639500D01*
X156800300Y-87642353D01*
X156800298Y-87642353D01*
X156672119Y-87687206D01*
X156672117Y-87687207D01*
X156562850Y-87767850D01*
X156482207Y-87877117D01*
X156482206Y-87877119D01*
X156437353Y-88005298D01*
X156437353Y-88005300D01*
X156434500Y-88035730D01*
X156434500Y-88190500D01*
X156414815Y-88257539D01*
X156362011Y-88303294D01*
X156310500Y-88314500D01*
X154321544Y-88314500D01*
X154254505Y-88294815D01*
X154233863Y-88278181D01*
X154231485Y-88275803D01*
X154126391Y-88224426D01*
X154058261Y-88214500D01*
X154058260Y-88214500D01*
X152241740Y-88214500D01*
X152241739Y-88214500D01*
X152173608Y-88224426D01*
X152068514Y-88275803D01*
X151985803Y-88358514D01*
X151934426Y-88463608D01*
X151924500Y-88531739D01*
X145075500Y-88531739D01*
X145071871Y-88506836D01*
X145065573Y-88463608D01*
X145065573Y-88463607D01*
X145014198Y-88358517D01*
X145014196Y-88358515D01*
X145014196Y-88358514D01*
X144931485Y-88275803D01*
X144826391Y-88224426D01*
X144758261Y-88214500D01*
X144758260Y-88214500D01*
X142941740Y-88214500D01*
X142941739Y-88214500D01*
X142873608Y-88224426D01*
X142768514Y-88275803D01*
X142766137Y-88278181D01*
X142762085Y-88280393D01*
X142760153Y-88281773D01*
X142759986Y-88281539D01*
X142746700Y-88288793D01*
X142729967Y-88303294D01*
X142713642Y-88306845D01*
X142704814Y-88311666D01*
X142694781Y-88310948D01*
X142678456Y-88314500D01*
X137057583Y-88314500D01*
X137000000Y-88314500D01*
X136875435Y-88314500D01*
X136875429Y-88314500D01*
X136875424Y-88314501D01*
X136628438Y-88347017D01*
X136387792Y-88411498D01*
X136157638Y-88506830D01*
X136157623Y-88506837D01*
X135941872Y-88631400D01*
X135744224Y-88783063D01*
X135568063Y-88959224D01*
X135416400Y-89156872D01*
X135291837Y-89372623D01*
X135291830Y-89372638D01*
X135196498Y-89602792D01*
X135132017Y-89843438D01*
X135099501Y-90090424D01*
X135099500Y-90090441D01*
X135099500Y-99510780D01*
X135079815Y-99577819D01*
X135027011Y-99623574D01*
X134999691Y-99632397D01*
X134672770Y-99697425D01*
X134672758Y-99697428D01*
X134353022Y-99794418D01*
X134044343Y-99922278D01*
X134044338Y-99922280D01*
X133749696Y-100079769D01*
X133749678Y-100079780D01*
X133471890Y-100265393D01*
X133471876Y-100265403D01*
X133213604Y-100477361D01*
X132977361Y-100713604D01*
X132765403Y-100971876D01*
X132765393Y-100971890D01*
X132579780Y-101249678D01*
X132579769Y-101249696D01*
X132422280Y-101544338D01*
X132422278Y-101544343D01*
X132294418Y-101853022D01*
X132197428Y-102172758D01*
X132197425Y-102172769D01*
X132132250Y-102500434D01*
X132132247Y-102500451D01*
X132112439Y-102701572D01*
X132099584Y-102832099D01*
X132099500Y-102832947D01*
X129750500Y-102832947D01*
X129750500Y-77002424D01*
X129750596Y-76997556D01*
X129752536Y-76948181D01*
X129757063Y-76832947D01*
X132099500Y-76832947D01*
X132099500Y-77167052D01*
X132132247Y-77499548D01*
X132132250Y-77499565D01*
X132197425Y-77827230D01*
X132197428Y-77827241D01*
X132294418Y-78146977D01*
X132422278Y-78455656D01*
X132422280Y-78455661D01*
X132579769Y-78750303D01*
X132579780Y-78750321D01*
X132765393Y-79028109D01*
X132765403Y-79028123D01*
X132977361Y-79286395D01*
X133213604Y-79522638D01*
X133213609Y-79522642D01*
X133213610Y-79522643D01*
X133471882Y-79734601D01*
X133749685Y-79920224D01*
X133749694Y-79920229D01*
X133749696Y-79920230D01*
X134044338Y-80077719D01*
X134044340Y-80077719D01*
X134044346Y-80077723D01*
X134353024Y-80205582D01*
X134672749Y-80302569D01*
X134672755Y-80302570D01*
X134672758Y-80302571D01*
X134672769Y-80302574D01*
X134999691Y-80367602D01*
X135061602Y-80399987D01*
X135096176Y-80460702D01*
X135099500Y-80489219D01*
X135099500Y-86069558D01*
X135099501Y-86069575D01*
X135122463Y-86243993D01*
X135132018Y-86316565D01*
X135167812Y-86450149D01*
X135196498Y-86557207D01*
X135291830Y-86787361D01*
X135291837Y-86787376D01*
X135416400Y-87003127D01*
X135568063Y-87200775D01*
X135568071Y-87200784D01*
X135744216Y-87376929D01*
X135744224Y-87376936D01*
X135941872Y-87528599D01*
X136157623Y-87653162D01*
X136157638Y-87653169D01*
X136239814Y-87687207D01*
X136387793Y-87748502D01*
X136628435Y-87812982D01*
X136875435Y-87845500D01*
X136947273Y-87845500D01*
X142678456Y-87845500D01*
X142687141Y-87848050D01*
X142696103Y-87846762D01*
X142720143Y-87857740D01*
X142745495Y-87865185D01*
X142757333Y-87874725D01*
X142759659Y-87875787D01*
X142760741Y-87877470D01*
X142766137Y-87881819D01*
X142768514Y-87884196D01*
X142768515Y-87884196D01*
X142768517Y-87884198D01*
X142873607Y-87935573D01*
X142907673Y-87940536D01*
X142941739Y-87945500D01*
X142941740Y-87945500D01*
X144758261Y-87945500D01*
X144780971Y-87942191D01*
X144826393Y-87935573D01*
X144931483Y-87884198D01*
X145014198Y-87801483D01*
X145065573Y-87696393D01*
X145075500Y-87628260D01*
X145075500Y-87261740D01*
X145065573Y-87193607D01*
X145014198Y-87088517D01*
X145014196Y-87088515D01*
X145014196Y-87088514D01*
X144931485Y-87005803D01*
X144826391Y-86954426D01*
X144758261Y-86944500D01*
X144758260Y-86944500D01*
X142941740Y-86944500D01*
X142941739Y-86944500D01*
X142873608Y-86954426D01*
X142768514Y-87005803D01*
X142766137Y-87008181D01*
X142762085Y-87010393D01*
X142760153Y-87011773D01*
X142759986Y-87011539D01*
X142704814Y-87041666D01*
X142678456Y-87044500D01*
X137005412Y-87044500D01*
X136994606Y-87044028D01*
X136967608Y-87041666D01*
X136819883Y-87028741D01*
X136798598Y-87024988D01*
X136634426Y-86980999D01*
X136614114Y-86973606D01*
X136572982Y-86954426D01*
X136481264Y-86911657D01*
X136460081Y-86901779D01*
X136441363Y-86890972D01*
X136302141Y-86793488D01*
X136285583Y-86779594D01*
X136165405Y-86659416D01*
X136151511Y-86642858D01*
X136151435Y-86642750D01*
X136054026Y-86503635D01*
X136043220Y-86484918D01*
X136039323Y-86476561D01*
X135971390Y-86330878D01*
X135964000Y-86310573D01*
X135920011Y-86146401D01*
X135916258Y-86125115D01*
X135911397Y-86069558D01*
X135902833Y-85971663D01*
X135900972Y-85950394D01*
X135900500Y-85939587D01*
X135900500Y-82302399D01*
X137864500Y-82302399D01*
X137864500Y-82427601D01*
X137896905Y-82548536D01*
X137959505Y-82656964D01*
X138048036Y-82745495D01*
X138156464Y-82808095D01*
X138277399Y-82840500D01*
X138277401Y-82840500D01*
X138375500Y-82840500D01*
X138442539Y-82860185D01*
X138488294Y-82912989D01*
X138499500Y-82964500D01*
X138499500Y-83062601D01*
X138531905Y-83183536D01*
X138594505Y-83291964D01*
X138683036Y-83380495D01*
X138791464Y-83443095D01*
X138912399Y-83475500D01*
X138912401Y-83475500D01*
X139010500Y-83475500D01*
X139077539Y-83495185D01*
X139123294Y-83547989D01*
X139134500Y-83599500D01*
X139134500Y-83697601D01*
X139166905Y-83818536D01*
X139229505Y-83926964D01*
X139318036Y-84015495D01*
X139426464Y-84078095D01*
X139547399Y-84110500D01*
X139547401Y-84110500D01*
X139645500Y-84110500D01*
X139712539Y-84130185D01*
X139758294Y-84182989D01*
X139769500Y-84234500D01*
X139769500Y-84332601D01*
X139801905Y-84453536D01*
X139864505Y-84561964D01*
X139953036Y-84650495D01*
X140061464Y-84713095D01*
X140182399Y-84745500D01*
X140182401Y-84745500D01*
X140280500Y-84745500D01*
X140347539Y-84765185D01*
X140393294Y-84817989D01*
X140404500Y-84869500D01*
X140404500Y-84967601D01*
X140436905Y-85088536D01*
X140499505Y-85196964D01*
X140588036Y-85285495D01*
X140696464Y-85348095D01*
X140817399Y-85380500D01*
X140817401Y-85380500D01*
X140915500Y-85380500D01*
X140982539Y-85400185D01*
X141028294Y-85452989D01*
X141039500Y-85504500D01*
X141039500Y-85602601D01*
X141071905Y-85723536D01*
X141134505Y-85831964D01*
X141223036Y-85920495D01*
X141331464Y-85983095D01*
X141452399Y-86015500D01*
X141452401Y-86015500D01*
X141550500Y-86015500D01*
X141617539Y-86035185D01*
X141663294Y-86087989D01*
X141674500Y-86139500D01*
X141674500Y-86237601D01*
X141706905Y-86358536D01*
X141769505Y-86466964D01*
X141858036Y-86555495D01*
X141966464Y-86618095D01*
X142087399Y-86650500D01*
X142087401Y-86650500D01*
X142212599Y-86650500D01*
X142212601Y-86650500D01*
X142333536Y-86618095D01*
X142441964Y-86555495D01*
X142485640Y-86511819D01*
X142512567Y-86497115D01*
X142538386Y-86480523D01*
X142544586Y-86479631D01*
X142546963Y-86478334D01*
X142573321Y-86475500D01*
X142582002Y-86475500D01*
X142649041Y-86495185D01*
X142682922Y-86527450D01*
X142685804Y-86531487D01*
X142768513Y-86614196D01*
X142768514Y-86614196D01*
X142768516Y-86614198D01*
X142873606Y-86665573D01*
X142907672Y-86670536D01*
X142941738Y-86675500D01*
X142941739Y-86675500D01*
X144758260Y-86675500D01*
X144780970Y-86672191D01*
X144826392Y-86665573D01*
X144931482Y-86614198D01*
X145014197Y-86531483D01*
X145065572Y-86426393D01*
X145075499Y-86358260D01*
X145075499Y-86300000D01*
X151875002Y-86300000D01*
X151875002Y-86356479D01*
X151889836Y-86450149D01*
X151889838Y-86450155D01*
X151947357Y-86563041D01*
X151947364Y-86563050D01*
X152036950Y-86652636D01*
X152036954Y-86652639D01*
X152149854Y-86710164D01*
X152161271Y-86711973D01*
X152224407Y-86741902D01*
X152261338Y-86801213D01*
X152260342Y-86871076D01*
X152221732Y-86929309D01*
X152178485Y-86952919D01*
X152173611Y-86954424D01*
X152068514Y-87005803D01*
X151985803Y-87088514D01*
X151934426Y-87193608D01*
X151924500Y-87261739D01*
X151924500Y-87628260D01*
X151934426Y-87696391D01*
X151985803Y-87801485D01*
X152068514Y-87884196D01*
X152068515Y-87884196D01*
X152068517Y-87884198D01*
X152173607Y-87935573D01*
X152207673Y-87940536D01*
X152241739Y-87945500D01*
X152241740Y-87945500D01*
X154058261Y-87945500D01*
X154080971Y-87942191D01*
X154126393Y-87935573D01*
X154231483Y-87884198D01*
X154314198Y-87801483D01*
X154314200Y-87801477D01*
X154317077Y-87797450D01*
X154372051Y-87754326D01*
X154417997Y-87745500D01*
X155566843Y-87745500D01*
X155566845Y-87745500D01*
X155728050Y-87717075D01*
X155881869Y-87661089D01*
X156023630Y-87579244D01*
X156149025Y-87474025D01*
X156254244Y-87348630D01*
X156336089Y-87206869D01*
X156392075Y-87053050D01*
X156420500Y-86891845D01*
X156420500Y-86818127D01*
X156421561Y-86801942D01*
X156429767Y-86739609D01*
X156438145Y-86708342D01*
X156459067Y-86657829D01*
X156475246Y-86629806D01*
X156508542Y-86586414D01*
X156531414Y-86563542D01*
X156574806Y-86530246D01*
X156602829Y-86514067D01*
X156653345Y-86493144D01*
X156684606Y-86484767D01*
X156733474Y-86478334D01*
X156746942Y-86476561D01*
X156763127Y-86475500D01*
X156802594Y-86475500D01*
X157952024Y-86475500D01*
X158019063Y-86495185D01*
X158055126Y-86530609D01*
X158115885Y-86621541D01*
X158115888Y-86621545D01*
X158213454Y-86719111D01*
X158213458Y-86719114D01*
X158328182Y-86795771D01*
X158328195Y-86795778D01*
X158455667Y-86848578D01*
X158455672Y-86848580D01*
X158455676Y-86848580D01*
X158455677Y-86848581D01*
X158591004Y-86875500D01*
X158591007Y-86875500D01*
X158728995Y-86875500D01*
X158855364Y-86850363D01*
X158864328Y-86848580D01*
X158962924Y-86807740D01*
X158991804Y-86795778D01*
X158991804Y-86795777D01*
X158991811Y-86795775D01*
X159106542Y-86719114D01*
X159204114Y-86621542D01*
X159280775Y-86506811D01*
X159333580Y-86379328D01*
X159345172Y-86321051D01*
X159360500Y-86243995D01*
X159360500Y-86106004D01*
X159333581Y-85970677D01*
X159333580Y-85970676D01*
X159333580Y-85970672D01*
X159328709Y-85958913D01*
X159280778Y-85843195D01*
X159280771Y-85843182D01*
X159204114Y-85728458D01*
X159204111Y-85728454D01*
X159106545Y-85630888D01*
X159106541Y-85630885D01*
X158991817Y-85554228D01*
X158991804Y-85554221D01*
X158864332Y-85501421D01*
X158864322Y-85501418D01*
X158728995Y-85474500D01*
X158728993Y-85474500D01*
X158591007Y-85474500D01*
X158591005Y-85474500D01*
X158455677Y-85501418D01*
X158455667Y-85501421D01*
X158328195Y-85554221D01*
X158328182Y-85554228D01*
X158213458Y-85630885D01*
X158213454Y-85630888D01*
X158115888Y-85728454D01*
X158115885Y-85728458D01*
X158055126Y-85819391D01*
X158001514Y-85864196D01*
X157952024Y-85874500D01*
X156673152Y-85874500D01*
X156511955Y-85902923D01*
X156358133Y-85958910D01*
X156358126Y-85958913D01*
X156216366Y-86040758D01*
X156090975Y-86145975D01*
X155985758Y-86271366D01*
X155903913Y-86413126D01*
X155903910Y-86413133D01*
X155847923Y-86566955D01*
X155819500Y-86728152D01*
X155819500Y-86801872D01*
X155818439Y-86818059D01*
X155810232Y-86880392D01*
X155801854Y-86911657D01*
X155780933Y-86962166D01*
X155764748Y-86990201D01*
X155731465Y-87033576D01*
X155708576Y-87056465D01*
X155665201Y-87089748D01*
X155637166Y-87105933D01*
X155586657Y-87126854D01*
X155555392Y-87135232D01*
X155505144Y-87141847D01*
X155493057Y-87143439D01*
X155476873Y-87144500D01*
X154417997Y-87144500D01*
X154350958Y-87124815D01*
X154317077Y-87092550D01*
X154314194Y-87088512D01*
X154231485Y-87005803D01*
X154126389Y-86954425D01*
X154121517Y-86952920D01*
X154063276Y-86914322D01*
X154035150Y-86850363D01*
X154046066Y-86781352D01*
X154092561Y-86729198D01*
X154138729Y-86711973D01*
X154150150Y-86710164D01*
X154150156Y-86710162D01*
X154263042Y-86652643D01*
X154263051Y-86652636D01*
X154352637Y-86563050D01*
X154352640Y-86563046D01*
X154410167Y-86450144D01*
X154425001Y-86356486D01*
X154425001Y-86300000D01*
X151875002Y-86300000D01*
X145075499Y-86300000D01*
X145075499Y-85993513D01*
X151875001Y-85993513D01*
X151875001Y-86050000D01*
X154425000Y-86050000D01*
X154425000Y-85993520D01*
X154410165Y-85899850D01*
X154410163Y-85899844D01*
X154352644Y-85786958D01*
X154352637Y-85786949D01*
X154263051Y-85697363D01*
X154263047Y-85697360D01*
X154150145Y-85639834D01*
X154138725Y-85638025D01*
X154075591Y-85608094D01*
X154038660Y-85548782D01*
X154039660Y-85478919D01*
X154078271Y-85420688D01*
X154121523Y-85397077D01*
X154126384Y-85395574D01*
X154126393Y-85395573D01*
X154231483Y-85344198D01*
X154314198Y-85261483D01*
X154314200Y-85261477D01*
X154317077Y-85257450D01*
X154372051Y-85214326D01*
X154417997Y-85205500D01*
X154674167Y-85205500D01*
X154741206Y-85225185D01*
X154761848Y-85241819D01*
X154973181Y-85453152D01*
X155006666Y-85514475D01*
X155009500Y-85540833D01*
X155009500Y-85602601D01*
X155041905Y-85723536D01*
X155104505Y-85831964D01*
X155193036Y-85920495D01*
X155301464Y-85983095D01*
X155422399Y-86015500D01*
X155422401Y-86015500D01*
X155547599Y-86015500D01*
X155547601Y-86015500D01*
X155668536Y-85983095D01*
X155776964Y-85920495D01*
X155865495Y-85831964D01*
X155928095Y-85723536D01*
X155960500Y-85602601D01*
X155960500Y-85504500D01*
X155980185Y-85437461D01*
X156032989Y-85391706D01*
X156084500Y-85380500D01*
X156182599Y-85380500D01*
X156182601Y-85380500D01*
X156303536Y-85348095D01*
X156411964Y-85285495D01*
X156500495Y-85196964D01*
X156563095Y-85088536D01*
X156595500Y-84967601D01*
X156595500Y-84869500D01*
X156615185Y-84802461D01*
X156667989Y-84756706D01*
X156719500Y-84745500D01*
X156817599Y-84745500D01*
X156817601Y-84745500D01*
X156938536Y-84713095D01*
X157046964Y-84650495D01*
X157135495Y-84561964D01*
X157198095Y-84453536D01*
X157230500Y-84332601D01*
X157230500Y-84234500D01*
X157250185Y-84167461D01*
X157302989Y-84121706D01*
X157354500Y-84110500D01*
X157452599Y-84110500D01*
X157452601Y-84110500D01*
X157573536Y-84078095D01*
X157681964Y-84015495D01*
X157770495Y-83926964D01*
X157833095Y-83818536D01*
X157865500Y-83697601D01*
X157865500Y-83599500D01*
X157885185Y-83532461D01*
X157937989Y-83486706D01*
X157989500Y-83475500D01*
X158087599Y-83475500D01*
X158087601Y-83475500D01*
X158208536Y-83443095D01*
X158316964Y-83380495D01*
X158405495Y-83291964D01*
X158468095Y-83183536D01*
X158500500Y-83062601D01*
X158500500Y-82964500D01*
X158520185Y-82897461D01*
X158572989Y-82851706D01*
X158624500Y-82840500D01*
X158722599Y-82840500D01*
X158722601Y-82840500D01*
X158843536Y-82808095D01*
X158951964Y-82745495D01*
X159040495Y-82656964D01*
X159103095Y-82548536D01*
X159135500Y-82427601D01*
X159135500Y-82302399D01*
X159103095Y-82181464D01*
X159040495Y-82073036D01*
X158951964Y-81984505D01*
X158843536Y-81921905D01*
X158843537Y-81921905D01*
X158803224Y-81911103D01*
X158722601Y-81889500D01*
X158722599Y-81889500D01*
X158660833Y-81889500D01*
X158593794Y-81869815D01*
X158573152Y-81853181D01*
X155034510Y-78314539D01*
X155015574Y-78303607D01*
X154997819Y-78293356D01*
X154997818Y-78293355D01*
X154965994Y-78274981D01*
X154965993Y-78274980D01*
X154956960Y-78272559D01*
X154889562Y-78254500D01*
X154889560Y-78254500D01*
X154417997Y-78254500D01*
X154350958Y-78234815D01*
X154317077Y-78202550D01*
X154314194Y-78198512D01*
X154231485Y-78115803D01*
X154126391Y-78064426D01*
X154058261Y-78054500D01*
X154058260Y-78054500D01*
X152241740Y-78054500D01*
X152241739Y-78054500D01*
X152173608Y-78064426D01*
X152068514Y-78115803D01*
X151985803Y-78198514D01*
X151934426Y-78303608D01*
X151924500Y-78371739D01*
X151924500Y-78738260D01*
X151934426Y-78806391D01*
X151985803Y-78911485D01*
X152068514Y-78994196D01*
X152068515Y-78994196D01*
X152068517Y-78994198D01*
X152173607Y-79045573D01*
X152207673Y-79050536D01*
X152241739Y-79055500D01*
X152241740Y-79055500D01*
X154058261Y-79055500D01*
X154080971Y-79052191D01*
X154126393Y-79045573D01*
X154231483Y-78994198D01*
X154314198Y-78911483D01*
X154314200Y-78911477D01*
X154317077Y-78907450D01*
X154372051Y-78864326D01*
X154417997Y-78855500D01*
X154674167Y-78855500D01*
X154741206Y-78875185D01*
X154761848Y-78891819D01*
X158148181Y-82278152D01*
X158162884Y-82305079D01*
X158179477Y-82330898D01*
X158180368Y-82337098D01*
X158181666Y-82339475D01*
X158184500Y-82365833D01*
X158184500Y-82400500D01*
X158164815Y-82467539D01*
X158112011Y-82513294D01*
X158060500Y-82524500D01*
X158025833Y-82524500D01*
X157958794Y-82504815D01*
X157938152Y-82488181D01*
X155034512Y-79584541D01*
X155034504Y-79584535D01*
X154965995Y-79544982D01*
X154965990Y-79544979D01*
X154940513Y-79538152D01*
X154889562Y-79524500D01*
X154889560Y-79524500D01*
X154417998Y-79524500D01*
X154350959Y-79504815D01*
X154317078Y-79472550D01*
X154314195Y-79468512D01*
X154231486Y-79385803D01*
X154126392Y-79334426D01*
X154058262Y-79324500D01*
X154058261Y-79324500D01*
X152241741Y-79324500D01*
X152241740Y-79324500D01*
X152173609Y-79334426D01*
X152068515Y-79385803D01*
X151985804Y-79468514D01*
X151934427Y-79573608D01*
X151924501Y-79641739D01*
X151924501Y-80008260D01*
X151934427Y-80076391D01*
X151985804Y-80181485D01*
X152068515Y-80264196D01*
X152068516Y-80264196D01*
X152068518Y-80264198D01*
X152173608Y-80315573D01*
X152207674Y-80320536D01*
X152241740Y-80325500D01*
X152241741Y-80325500D01*
X154058262Y-80325500D01*
X154080972Y-80322191D01*
X154126394Y-80315573D01*
X154231484Y-80264198D01*
X154314199Y-80181483D01*
X154314201Y-80181477D01*
X154317078Y-80177450D01*
X154372052Y-80134326D01*
X154417998Y-80125500D01*
X154674167Y-80125500D01*
X154741206Y-80145185D01*
X154761848Y-80161819D01*
X157513181Y-82913152D01*
X157527884Y-82940079D01*
X157544477Y-82965898D01*
X157545368Y-82972098D01*
X157546666Y-82974475D01*
X157549500Y-83000833D01*
X157549500Y-83035500D01*
X157529815Y-83102539D01*
X157477011Y-83148294D01*
X157425500Y-83159500D01*
X157390833Y-83159500D01*
X157323794Y-83139815D01*
X157303152Y-83123181D01*
X155034512Y-80854541D01*
X155034511Y-80854540D01*
X155015574Y-80843607D01*
X155015574Y-80843605D01*
X155015571Y-80843605D01*
X154965994Y-80814981D01*
X154965991Y-80814979D01*
X154927775Y-80804739D01*
X154889562Y-80794500D01*
X154889560Y-80794500D01*
X154417997Y-80794500D01*
X154350958Y-80774815D01*
X154317077Y-80742550D01*
X154314194Y-80738512D01*
X154231485Y-80655803D01*
X154126391Y-80604426D01*
X154058261Y-80594500D01*
X154058260Y-80594500D01*
X152241740Y-80594500D01*
X152241739Y-80594500D01*
X152173608Y-80604426D01*
X152068514Y-80655803D01*
X151985803Y-80738514D01*
X151934427Y-80843607D01*
X151924500Y-80911739D01*
X151924500Y-81278260D01*
X151934426Y-81346391D01*
X151985803Y-81451485D01*
X152068514Y-81534196D01*
X152068515Y-81534196D01*
X152068517Y-81534198D01*
X152173607Y-81585573D01*
X152207673Y-81590536D01*
X152241739Y-81595500D01*
X152241740Y-81595500D01*
X154058261Y-81595500D01*
X154080971Y-81592191D01*
X154126393Y-81585573D01*
X154231483Y-81534198D01*
X154314198Y-81451483D01*
X154314200Y-81451477D01*
X154317077Y-81447450D01*
X154372051Y-81404326D01*
X154417997Y-81395500D01*
X154674167Y-81395500D01*
X154741206Y-81415185D01*
X154761848Y-81431819D01*
X156878181Y-83548152D01*
X156892884Y-83575079D01*
X156909477Y-83600898D01*
X156910368Y-83607098D01*
X156911666Y-83609475D01*
X156914500Y-83635833D01*
X156914500Y-83670500D01*
X156894815Y-83737539D01*
X156842011Y-83783294D01*
X156790500Y-83794500D01*
X156755833Y-83794500D01*
X156688794Y-83774815D01*
X156668152Y-83758181D01*
X155034512Y-82124541D01*
X155034511Y-82124540D01*
X155015574Y-82113607D01*
X155015574Y-82113605D01*
X155015571Y-82113605D01*
X154965994Y-82084981D01*
X154965991Y-82084979D01*
X154927775Y-82074739D01*
X154889562Y-82064500D01*
X154889560Y-82064500D01*
X154417997Y-82064500D01*
X154350958Y-82044815D01*
X154317077Y-82012550D01*
X154314194Y-82008512D01*
X154231485Y-81925803D01*
X154223511Y-81921905D01*
X154126393Y-81874427D01*
X154126391Y-81874426D01*
X154058261Y-81864500D01*
X154058260Y-81864500D01*
X152241740Y-81864500D01*
X152241739Y-81864500D01*
X152173608Y-81874426D01*
X152068514Y-81925803D01*
X151985803Y-82008514D01*
X151934427Y-82113607D01*
X151924500Y-82181739D01*
X151924500Y-82548260D01*
X151934426Y-82616391D01*
X151985803Y-82721485D01*
X152068514Y-82804196D01*
X152068515Y-82804196D01*
X152068517Y-82804198D01*
X152173607Y-82855573D01*
X152205261Y-82860185D01*
X152241739Y-82865500D01*
X152241740Y-82865500D01*
X154058261Y-82865500D01*
X154080971Y-82862191D01*
X154126393Y-82855573D01*
X154231483Y-82804198D01*
X154314198Y-82721483D01*
X154314200Y-82721477D01*
X154317077Y-82717450D01*
X154372051Y-82674326D01*
X154417997Y-82665500D01*
X154674167Y-82665500D01*
X154741206Y-82685185D01*
X154761848Y-82701819D01*
X156243181Y-84183152D01*
X156257884Y-84210079D01*
X156274477Y-84235898D01*
X156275368Y-84242098D01*
X156276666Y-84244475D01*
X156279500Y-84270833D01*
X156279500Y-84305500D01*
X156259815Y-84372539D01*
X156207011Y-84418294D01*
X156155500Y-84429500D01*
X156120833Y-84429500D01*
X156053794Y-84409815D01*
X156033152Y-84393181D01*
X155034512Y-83394541D01*
X155034507Y-83394537D01*
X155010183Y-83380494D01*
X155010183Y-83380493D01*
X155010181Y-83380493D01*
X154965994Y-83354981D01*
X154965993Y-83354980D01*
X154956960Y-83352559D01*
X154889562Y-83334500D01*
X154889560Y-83334500D01*
X154417997Y-83334500D01*
X154350958Y-83314815D01*
X154317077Y-83282550D01*
X154314194Y-83278512D01*
X154231485Y-83195803D01*
X154223511Y-83191905D01*
X154126393Y-83144427D01*
X154126391Y-83144426D01*
X154058261Y-83134500D01*
X154058260Y-83134500D01*
X152241740Y-83134500D01*
X152241739Y-83134500D01*
X152173608Y-83144426D01*
X152068514Y-83195803D01*
X151985803Y-83278514D01*
X151934426Y-83383608D01*
X151924500Y-83451739D01*
X151924500Y-83818260D01*
X151934426Y-83886391D01*
X151985803Y-83991485D01*
X152068514Y-84074196D01*
X152068515Y-84074196D01*
X152068517Y-84074198D01*
X152173607Y-84125573D01*
X152205261Y-84130185D01*
X152241739Y-84135500D01*
X152241740Y-84135500D01*
X154058261Y-84135500D01*
X154080971Y-84132191D01*
X154126393Y-84125573D01*
X154231483Y-84074198D01*
X154314198Y-83991483D01*
X154314200Y-83991477D01*
X154317077Y-83987450D01*
X154372051Y-83944326D01*
X154417997Y-83935500D01*
X154674167Y-83935500D01*
X154741206Y-83955185D01*
X154761848Y-83971819D01*
X155608181Y-84818152D01*
X155622884Y-84845079D01*
X155639477Y-84870898D01*
X155640368Y-84877098D01*
X155641666Y-84879475D01*
X155644500Y-84905833D01*
X155644500Y-84940500D01*
X155624815Y-85007539D01*
X155572011Y-85053294D01*
X155520500Y-85064500D01*
X155485833Y-85064500D01*
X155418794Y-85044815D01*
X155398152Y-85028181D01*
X155034512Y-84664541D01*
X155034507Y-84664537D01*
X155010183Y-84650494D01*
X155010183Y-84650493D01*
X155010181Y-84650493D01*
X154965994Y-84624981D01*
X154965993Y-84624980D01*
X154956960Y-84622559D01*
X154889562Y-84604500D01*
X154889560Y-84604500D01*
X154417997Y-84604500D01*
X154350958Y-84584815D01*
X154317077Y-84552550D01*
X154314194Y-84548512D01*
X154231485Y-84465803D01*
X154223511Y-84461905D01*
X154126393Y-84414427D01*
X154126391Y-84414426D01*
X154058261Y-84404500D01*
X154058260Y-84404500D01*
X152241740Y-84404500D01*
X152241739Y-84404500D01*
X152173608Y-84414426D01*
X152068514Y-84465803D01*
X151985803Y-84548514D01*
X151934426Y-84653608D01*
X151924500Y-84721739D01*
X151924500Y-85088260D01*
X151934426Y-85156391D01*
X151985803Y-85261485D01*
X152068514Y-85344196D01*
X152068515Y-85344196D01*
X152068517Y-85344198D01*
X152173607Y-85395573D01*
X152173614Y-85395574D01*
X152178476Y-85397076D01*
X152236718Y-85435671D01*
X152264849Y-85499628D01*
X152253937Y-85568640D01*
X152207446Y-85620797D01*
X152161278Y-85638025D01*
X152149854Y-85639834D01*
X152149845Y-85639837D01*
X152036959Y-85697356D01*
X152036950Y-85697363D01*
X151947364Y-85786949D01*
X151947361Y-85786953D01*
X151889834Y-85899855D01*
X151875001Y-85993513D01*
X145075499Y-85993513D01*
X145075499Y-85991740D01*
X145074239Y-85983095D01*
X145065572Y-85923608D01*
X145065572Y-85923607D01*
X145014197Y-85818517D01*
X145014195Y-85818515D01*
X145014195Y-85818514D01*
X144931484Y-85735803D01*
X144923510Y-85731905D01*
X144826392Y-85684427D01*
X144826390Y-85684426D01*
X144758260Y-85674500D01*
X144758259Y-85674500D01*
X142941739Y-85674500D01*
X142941738Y-85674500D01*
X142873607Y-85684426D01*
X142768513Y-85735803D01*
X142685804Y-85818512D01*
X142682922Y-85822550D01*
X142678205Y-85826249D01*
X142675715Y-85831703D01*
X142651033Y-85847564D01*
X142627948Y-85865674D01*
X142620683Y-85867069D01*
X142616937Y-85869477D01*
X142582002Y-85874500D01*
X142573321Y-85874500D01*
X142506282Y-85854815D01*
X142485640Y-85838181D01*
X142441965Y-85794506D01*
X142441964Y-85794505D01*
X142333536Y-85731905D01*
X142333537Y-85731905D01*
X142293224Y-85721103D01*
X142212601Y-85699500D01*
X142114500Y-85699500D01*
X142105814Y-85696949D01*
X142096853Y-85698238D01*
X142072812Y-85687259D01*
X142047461Y-85679815D01*
X142041533Y-85672974D01*
X142033297Y-85669213D01*
X142019007Y-85646978D01*
X142001706Y-85627011D01*
X141999418Y-85616496D01*
X141995523Y-85610435D01*
X141990500Y-85575500D01*
X141990500Y-85540833D01*
X142010185Y-85473794D01*
X142026819Y-85453152D01*
X142238152Y-85241819D01*
X142299475Y-85208334D01*
X142325833Y-85205500D01*
X142582003Y-85205500D01*
X142649042Y-85225185D01*
X142682923Y-85257450D01*
X142685805Y-85261487D01*
X142768514Y-85344196D01*
X142768515Y-85344196D01*
X142768517Y-85344198D01*
X142873607Y-85395573D01*
X142883923Y-85397076D01*
X142941739Y-85405500D01*
X142941740Y-85405500D01*
X144758261Y-85405500D01*
X144780971Y-85402191D01*
X144826393Y-85395573D01*
X144931483Y-85344198D01*
X145014198Y-85261483D01*
X145065573Y-85156393D01*
X145075500Y-85088260D01*
X145075500Y-84721740D01*
X145074240Y-84713095D01*
X145067166Y-84664540D01*
X145065573Y-84653607D01*
X145014198Y-84548517D01*
X145014196Y-84548515D01*
X145014196Y-84548514D01*
X144931485Y-84465803D01*
X144923511Y-84461905D01*
X144826393Y-84414427D01*
X144826391Y-84414426D01*
X144758261Y-84404500D01*
X144758260Y-84404500D01*
X142941740Y-84404500D01*
X142941739Y-84404500D01*
X142873608Y-84414426D01*
X142768514Y-84465803D01*
X142685805Y-84548512D01*
X142682923Y-84552550D01*
X142627949Y-84595674D01*
X142582003Y-84604500D01*
X142110438Y-84604500D01*
X142034010Y-84624978D01*
X141965489Y-84664540D01*
X141965486Y-84664542D01*
X141601848Y-85028181D01*
X141574920Y-85042884D01*
X141549102Y-85059477D01*
X141542901Y-85060368D01*
X141540525Y-85061666D01*
X141514167Y-85064500D01*
X141479500Y-85064500D01*
X141412461Y-85044815D01*
X141366706Y-84992011D01*
X141355500Y-84940500D01*
X141355500Y-84905833D01*
X141375185Y-84838794D01*
X141391819Y-84818152D01*
X142238152Y-83971819D01*
X142299475Y-83938334D01*
X142325833Y-83935500D01*
X142582003Y-83935500D01*
X142649042Y-83955185D01*
X142682923Y-83987450D01*
X142685805Y-83991487D01*
X142768514Y-84074196D01*
X142768515Y-84074196D01*
X142768517Y-84074198D01*
X142873607Y-84125573D01*
X142905261Y-84130185D01*
X142941739Y-84135500D01*
X142941740Y-84135500D01*
X144758261Y-84135500D01*
X144780971Y-84132191D01*
X144826393Y-84125573D01*
X144931483Y-84074198D01*
X145014198Y-83991483D01*
X145065573Y-83886393D01*
X145075500Y-83818260D01*
X145075500Y-83451740D01*
X145074240Y-83443095D01*
X145067166Y-83394540D01*
X145065573Y-83383607D01*
X145014198Y-83278517D01*
X145014196Y-83278515D01*
X145014196Y-83278514D01*
X144931485Y-83195803D01*
X144923511Y-83191905D01*
X144826393Y-83144427D01*
X144826391Y-83144426D01*
X144758261Y-83134500D01*
X144758260Y-83134500D01*
X142941740Y-83134500D01*
X142941739Y-83134500D01*
X142873608Y-83144426D01*
X142768514Y-83195803D01*
X142685805Y-83278512D01*
X142682923Y-83282550D01*
X142627949Y-83325674D01*
X142582003Y-83334500D01*
X142110438Y-83334500D01*
X142043039Y-83352559D01*
X142034007Y-83354980D01*
X141989817Y-83380494D01*
X141965492Y-83394537D01*
X141965487Y-83394541D01*
X140966848Y-84393181D01*
X140939920Y-84407884D01*
X140914102Y-84424477D01*
X140907901Y-84425368D01*
X140905525Y-84426666D01*
X140879167Y-84429500D01*
X140844500Y-84429500D01*
X140777461Y-84409815D01*
X140731706Y-84357011D01*
X140720500Y-84305500D01*
X140720500Y-84270833D01*
X140740185Y-84203794D01*
X140756819Y-84183152D01*
X142238152Y-82701819D01*
X142299475Y-82668334D01*
X142325833Y-82665500D01*
X142582003Y-82665500D01*
X142649042Y-82685185D01*
X142682923Y-82717450D01*
X142685805Y-82721487D01*
X142768514Y-82804196D01*
X142768515Y-82804196D01*
X142768517Y-82804198D01*
X142873607Y-82855573D01*
X142905261Y-82860185D01*
X142941739Y-82865500D01*
X142941740Y-82865500D01*
X144758261Y-82865500D01*
X144780971Y-82862191D01*
X144826393Y-82855573D01*
X144931483Y-82804198D01*
X145014198Y-82721483D01*
X145065573Y-82616393D01*
X145075500Y-82548260D01*
X145075500Y-82181740D01*
X145065573Y-82113607D01*
X145014198Y-82008517D01*
X145014196Y-82008515D01*
X145014196Y-82008514D01*
X144931485Y-81925803D01*
X144923511Y-81921905D01*
X144826393Y-81874427D01*
X144826391Y-81874426D01*
X144758261Y-81864500D01*
X144758260Y-81864500D01*
X142941740Y-81864500D01*
X142941739Y-81864500D01*
X142873608Y-81874426D01*
X142768514Y-81925803D01*
X142685805Y-82008512D01*
X142682923Y-82012550D01*
X142627949Y-82055674D01*
X142582003Y-82064500D01*
X142110438Y-82064500D01*
X142079867Y-82072691D01*
X142034008Y-82084979D01*
X142034007Y-82084980D01*
X141984427Y-82113606D01*
X141984426Y-82113607D01*
X141965490Y-82124539D01*
X141965487Y-82124541D01*
X140331848Y-83758181D01*
X140304920Y-83772884D01*
X140279102Y-83789477D01*
X140272901Y-83790368D01*
X140270525Y-83791666D01*
X140244167Y-83794500D01*
X140209500Y-83794500D01*
X140142461Y-83774815D01*
X140096706Y-83722011D01*
X140085500Y-83670500D01*
X140085500Y-83635833D01*
X140105185Y-83568794D01*
X140121819Y-83548152D01*
X142238152Y-81431819D01*
X142299475Y-81398334D01*
X142325833Y-81395500D01*
X142582003Y-81395500D01*
X142649042Y-81415185D01*
X142682923Y-81447450D01*
X142685805Y-81451487D01*
X142768514Y-81534196D01*
X142768515Y-81534196D01*
X142768517Y-81534198D01*
X142873607Y-81585573D01*
X142907673Y-81590536D01*
X142941739Y-81595500D01*
X142941740Y-81595500D01*
X144758261Y-81595500D01*
X144780971Y-81592191D01*
X144826393Y-81585573D01*
X144931483Y-81534198D01*
X145014198Y-81451483D01*
X145065573Y-81346393D01*
X145075500Y-81278260D01*
X145075500Y-80911740D01*
X145065573Y-80843607D01*
X145014198Y-80738517D01*
X145014196Y-80738515D01*
X145014196Y-80738514D01*
X144931485Y-80655803D01*
X144826391Y-80604426D01*
X144758261Y-80594500D01*
X144758260Y-80594500D01*
X142941740Y-80594500D01*
X142941739Y-80594500D01*
X142873608Y-80604426D01*
X142768514Y-80655803D01*
X142685805Y-80738512D01*
X142682923Y-80742550D01*
X142627949Y-80785674D01*
X142582003Y-80794500D01*
X142110438Y-80794500D01*
X142079867Y-80802691D01*
X142034008Y-80814979D01*
X142034007Y-80814980D01*
X141984427Y-80843606D01*
X141984426Y-80843607D01*
X141965490Y-80854539D01*
X141965487Y-80854541D01*
X139696848Y-83123181D01*
X139669920Y-83137884D01*
X139644102Y-83154477D01*
X139637901Y-83155368D01*
X139635525Y-83156666D01*
X139609167Y-83159500D01*
X139574500Y-83159500D01*
X139507461Y-83139815D01*
X139461706Y-83087011D01*
X139450500Y-83035500D01*
X139450500Y-83000833D01*
X139470185Y-82933794D01*
X139486819Y-82913152D01*
X142238152Y-80161819D01*
X142299475Y-80128334D01*
X142325833Y-80125500D01*
X142582002Y-80125500D01*
X142649041Y-80145185D01*
X142682922Y-80177450D01*
X142685804Y-80181487D01*
X142768513Y-80264196D01*
X142768514Y-80264196D01*
X142768516Y-80264198D01*
X142873606Y-80315573D01*
X142907672Y-80320536D01*
X142941738Y-80325500D01*
X142941739Y-80325500D01*
X144758260Y-80325500D01*
X144780970Y-80322191D01*
X144826392Y-80315573D01*
X144931482Y-80264198D01*
X145014197Y-80181483D01*
X145065572Y-80076393D01*
X145075499Y-80008260D01*
X145075499Y-79641740D01*
X145065572Y-79573607D01*
X145014197Y-79468517D01*
X145014195Y-79468515D01*
X145014195Y-79468514D01*
X144931484Y-79385803D01*
X144826390Y-79334426D01*
X144758260Y-79324500D01*
X144758259Y-79324500D01*
X142941739Y-79324500D01*
X142941738Y-79324500D01*
X142873607Y-79334426D01*
X142768513Y-79385803D01*
X142685804Y-79468512D01*
X142682922Y-79472550D01*
X142627948Y-79515674D01*
X142582002Y-79524500D01*
X142110438Y-79524500D01*
X142072224Y-79534739D01*
X142034009Y-79544979D01*
X142034004Y-79544982D01*
X141965495Y-79584535D01*
X141965487Y-79584541D01*
X139061848Y-82488181D01*
X139034920Y-82502884D01*
X139009102Y-82519477D01*
X139002901Y-82520368D01*
X139000525Y-82521666D01*
X138974167Y-82524500D01*
X138939500Y-82524500D01*
X138872461Y-82504815D01*
X138826706Y-82452011D01*
X138815500Y-82400500D01*
X138815500Y-82365833D01*
X138835185Y-82298794D01*
X138851819Y-82278152D01*
X142238152Y-78891819D01*
X142299475Y-78858334D01*
X142325833Y-78855500D01*
X142582003Y-78855500D01*
X142649042Y-78875185D01*
X142682923Y-78907450D01*
X142685805Y-78911487D01*
X142768514Y-78994196D01*
X142768515Y-78994196D01*
X142768517Y-78994198D01*
X142873607Y-79045573D01*
X142907673Y-79050536D01*
X142941739Y-79055500D01*
X142941740Y-79055500D01*
X144758261Y-79055500D01*
X144780971Y-79052191D01*
X144826393Y-79045573D01*
X144931483Y-78994198D01*
X145014198Y-78911483D01*
X145065573Y-78806393D01*
X145075500Y-78738260D01*
X145075500Y-78371740D01*
X145065573Y-78303607D01*
X145014198Y-78198517D01*
X145014196Y-78198515D01*
X145014196Y-78198514D01*
X144931485Y-78115803D01*
X144826391Y-78064426D01*
X144758261Y-78054500D01*
X144758260Y-78054500D01*
X142941740Y-78054500D01*
X142941739Y-78054500D01*
X142873608Y-78064426D01*
X142768514Y-78115803D01*
X142685805Y-78198512D01*
X142682923Y-78202550D01*
X142627949Y-78245674D01*
X142582003Y-78254500D01*
X142110438Y-78254500D01*
X142034010Y-78274978D01*
X141965489Y-78314540D01*
X141965486Y-78314542D01*
X138426848Y-81853181D01*
X138365525Y-81886666D01*
X138339167Y-81889500D01*
X138277399Y-81889500D01*
X138196775Y-81911103D01*
X138156463Y-81921905D01*
X138048037Y-81984504D01*
X138048034Y-81984506D01*
X137959506Y-82073034D01*
X137959504Y-82073037D01*
X137896905Y-82181463D01*
X137896905Y-82181464D01*
X137864500Y-82302399D01*
X135900500Y-82302399D01*
X135900500Y-80489219D01*
X135920185Y-80422180D01*
X135972989Y-80376425D01*
X136000309Y-80367602D01*
X136327230Y-80302574D01*
X136327241Y-80302571D01*
X136327241Y-80302570D01*
X136327251Y-80302569D01*
X136646976Y-80205582D01*
X136955654Y-80077723D01*
X137250315Y-79920224D01*
X137528118Y-79734601D01*
X137786390Y-79522643D01*
X138022643Y-79286390D01*
X138234601Y-79028118D01*
X138420224Y-78750315D01*
X138577723Y-78455654D01*
X138705582Y-78146976D01*
X138802569Y-77827251D01*
X138802571Y-77827241D01*
X138802574Y-77827230D01*
X138839520Y-77641485D01*
X138867751Y-77499559D01*
X138895049Y-77222399D01*
X141674500Y-77222399D01*
X141674500Y-77347601D01*
X141706905Y-77468536D01*
X141769505Y-77576964D01*
X141858036Y-77665495D01*
X141966464Y-77728095D01*
X142087399Y-77760500D01*
X142087401Y-77760500D01*
X142212599Y-77760500D01*
X142212601Y-77760500D01*
X142333536Y-77728095D01*
X142441964Y-77665495D01*
X142485640Y-77621819D01*
X142512567Y-77607115D01*
X142538386Y-77590523D01*
X142544586Y-77589631D01*
X142546963Y-77588334D01*
X142573321Y-77585500D01*
X142582003Y-77585500D01*
X142649042Y-77605185D01*
X142682923Y-77637450D01*
X142685805Y-77641487D01*
X142768514Y-77724196D01*
X142768515Y-77724196D01*
X142768517Y-77724198D01*
X142873607Y-77775573D01*
X142907673Y-77780536D01*
X142941739Y-77785500D01*
X142941740Y-77785500D01*
X144758261Y-77785500D01*
X144780971Y-77782191D01*
X144826393Y-77775573D01*
X144931483Y-77724198D01*
X145014198Y-77641483D01*
X145065573Y-77536393D01*
X145075500Y-77468260D01*
X145075500Y-77101740D01*
X145075500Y-77101739D01*
X151924500Y-77101739D01*
X151924500Y-77468260D01*
X151934426Y-77536391D01*
X151985803Y-77641485D01*
X152068514Y-77724196D01*
X152068515Y-77724196D01*
X152068517Y-77724198D01*
X152173607Y-77775573D01*
X152207673Y-77780536D01*
X152241739Y-77785500D01*
X152241740Y-77785500D01*
X154058261Y-77785500D01*
X154080971Y-77782191D01*
X154126393Y-77775573D01*
X154231483Y-77724198D01*
X154314198Y-77641483D01*
X154314200Y-77641477D01*
X154317077Y-77637450D01*
X154321793Y-77633750D01*
X154324284Y-77628297D01*
X154348965Y-77612435D01*
X154372051Y-77594326D01*
X154379315Y-77592930D01*
X154383062Y-77590523D01*
X154417997Y-77585500D01*
X154426679Y-77585500D01*
X154493718Y-77605185D01*
X154514360Y-77621819D01*
X154558036Y-77665495D01*
X154666464Y-77728095D01*
X154787399Y-77760500D01*
X154787401Y-77760500D01*
X154912599Y-77760500D01*
X154912601Y-77760500D01*
X155033536Y-77728095D01*
X155141964Y-77665495D01*
X155230495Y-77576964D01*
X155293095Y-77468536D01*
X155325500Y-77347601D01*
X155325500Y-77222399D01*
X155293095Y-77101464D01*
X155230495Y-76993036D01*
X155141964Y-76904505D01*
X155033536Y-76841905D01*
X155033537Y-76841905D01*
X154970566Y-76825032D01*
X154912601Y-76809500D01*
X154787399Y-76809500D01*
X154729434Y-76825032D01*
X154666463Y-76841905D01*
X154558037Y-76904504D01*
X154558034Y-76904506D01*
X154514360Y-76948181D01*
X154487432Y-76962884D01*
X154461614Y-76979477D01*
X154455413Y-76980368D01*
X154453037Y-76981666D01*
X154426679Y-76984500D01*
X154417997Y-76984500D01*
X154350958Y-76964815D01*
X154317077Y-76932550D01*
X154314194Y-76928512D01*
X154231485Y-76845803D01*
X154223511Y-76841905D01*
X154126393Y-76794427D01*
X154126391Y-76794426D01*
X154058261Y-76784500D01*
X154058260Y-76784500D01*
X152241740Y-76784500D01*
X152241739Y-76784500D01*
X152173608Y-76794426D01*
X152068514Y-76845803D01*
X151985803Y-76928514D01*
X151934426Y-77033608D01*
X151924500Y-77101739D01*
X145075500Y-77101739D01*
X145065573Y-77033607D01*
X145014198Y-76928517D01*
X145014196Y-76928515D01*
X145014196Y-76928514D01*
X144931485Y-76845803D01*
X144923511Y-76841905D01*
X144826393Y-76794427D01*
X144826391Y-76794426D01*
X144758261Y-76784500D01*
X144758260Y-76784500D01*
X142941740Y-76784500D01*
X142941739Y-76784500D01*
X142873608Y-76794426D01*
X142768514Y-76845803D01*
X142685805Y-76928512D01*
X142682923Y-76932550D01*
X142678206Y-76936249D01*
X142675716Y-76941703D01*
X142651034Y-76957564D01*
X142627949Y-76975674D01*
X142620684Y-76977069D01*
X142616938Y-76979477D01*
X142582003Y-76984500D01*
X142573321Y-76984500D01*
X142506282Y-76964815D01*
X142485640Y-76948181D01*
X142441965Y-76904506D01*
X142441964Y-76904505D01*
X142333536Y-76841905D01*
X142333537Y-76841905D01*
X142270566Y-76825032D01*
X142212601Y-76809500D01*
X142087399Y-76809500D01*
X142029434Y-76825032D01*
X141966463Y-76841905D01*
X141858037Y-76904504D01*
X141858034Y-76904506D01*
X141769506Y-76993034D01*
X141769504Y-76993037D01*
X141706905Y-77101463D01*
X141706905Y-77101464D01*
X141674500Y-77222399D01*
X138895049Y-77222399D01*
X138900500Y-77167056D01*
X138900500Y-76832944D01*
X138867751Y-76500441D01*
X138842100Y-76371484D01*
X138802574Y-76172769D01*
X138802571Y-76172758D01*
X138802570Y-76172755D01*
X138802569Y-76172749D01*
X138705582Y-75853024D01*
X138696766Y-75831740D01*
X142624500Y-75831740D01*
X142624500Y-76198261D01*
X142634426Y-76266392D01*
X142685803Y-76371486D01*
X142768514Y-76454197D01*
X142768515Y-76454197D01*
X142768517Y-76454199D01*
X142873607Y-76505574D01*
X142907673Y-76510537D01*
X142941739Y-76515501D01*
X142941740Y-76515501D01*
X144758261Y-76515501D01*
X144780971Y-76512192D01*
X144826393Y-76505574D01*
X144931483Y-76454199D01*
X144938589Y-76447092D01*
X144999909Y-76413607D01*
X145069601Y-76418589D01*
X145088271Y-76427384D01*
X145141464Y-76458095D01*
X145262399Y-76490500D01*
X145262401Y-76490500D01*
X145387599Y-76490500D01*
X145387601Y-76490500D01*
X145508536Y-76458095D01*
X145616964Y-76395495D01*
X145705495Y-76306964D01*
X145768095Y-76198536D01*
X145800500Y-76077601D01*
X145800500Y-75952399D01*
X151199500Y-75952399D01*
X151199500Y-76077601D01*
X151231905Y-76198536D01*
X151294505Y-76306964D01*
X151383036Y-76395495D01*
X151491464Y-76458095D01*
X151612399Y-76490500D01*
X151612401Y-76490500D01*
X151737599Y-76490500D01*
X151737601Y-76490500D01*
X151858536Y-76458095D01*
X151911728Y-76427384D01*
X151979627Y-76410912D01*
X152045654Y-76433764D01*
X152061408Y-76447091D01*
X152068514Y-76454197D01*
X152068515Y-76454197D01*
X152068517Y-76454199D01*
X152173607Y-76505574D01*
X152207673Y-76510537D01*
X152241739Y-76515501D01*
X152241740Y-76515501D01*
X154058261Y-76515501D01*
X154080971Y-76512192D01*
X154126393Y-76505574D01*
X154231483Y-76454199D01*
X154314198Y-76371484D01*
X154365573Y-76266394D01*
X154375500Y-76198261D01*
X154375500Y-75831741D01*
X154375459Y-75831463D01*
X154365573Y-75763609D01*
X154345739Y-75723037D01*
X154314198Y-75658518D01*
X154314196Y-75658516D01*
X154314196Y-75658515D01*
X154231485Y-75575804D01*
X154126391Y-75524427D01*
X154058261Y-75514501D01*
X154058260Y-75514501D01*
X152241740Y-75514501D01*
X152241739Y-75514501D01*
X152173608Y-75524427D01*
X152068515Y-75575803D01*
X152068515Y-75575804D01*
X152061407Y-75582912D01*
X152000083Y-75616395D01*
X151930391Y-75611408D01*
X151911730Y-75602616D01*
X151858536Y-75571905D01*
X151858537Y-75571905D01*
X151818224Y-75561103D01*
X151737601Y-75539500D01*
X151612399Y-75539500D01*
X151531775Y-75561103D01*
X151491463Y-75571905D01*
X151383037Y-75634504D01*
X151383034Y-75634506D01*
X151294506Y-75723034D01*
X151294504Y-75723037D01*
X151231905Y-75831463D01*
X151231905Y-75831464D01*
X151199500Y-75952399D01*
X145800500Y-75952399D01*
X145768095Y-75831464D01*
X145705495Y-75723036D01*
X145616964Y-75634505D01*
X145508536Y-75571905D01*
X145508537Y-75571905D01*
X145468224Y-75561103D01*
X145387601Y-75539500D01*
X145262399Y-75539500D01*
X145181775Y-75561103D01*
X145141463Y-75571905D01*
X145088270Y-75602616D01*
X145020369Y-75619087D01*
X144954343Y-75596235D01*
X144938590Y-75582909D01*
X144931485Y-75575804D01*
X144826391Y-75524427D01*
X144758261Y-75514501D01*
X144758260Y-75514501D01*
X142941740Y-75514501D01*
X142941739Y-75514501D01*
X142873608Y-75524427D01*
X142768514Y-75575804D01*
X142685803Y-75658515D01*
X142634426Y-75763609D01*
X142624500Y-75831740D01*
X138696766Y-75831740D01*
X138577723Y-75544346D01*
X138420224Y-75249685D01*
X138234601Y-74971882D01*
X138022643Y-74713610D01*
X138022642Y-74713609D01*
X138022638Y-74713604D01*
X137786395Y-74477361D01*
X137528123Y-74265403D01*
X137528122Y-74265402D01*
X137528118Y-74265399D01*
X137250315Y-74079776D01*
X137250310Y-74079773D01*
X137250303Y-74079769D01*
X136955661Y-73922280D01*
X136955656Y-73922278D01*
X136646977Y-73794418D01*
X136327241Y-73697428D01*
X136327230Y-73697425D01*
X135999565Y-73632250D01*
X135999548Y-73632247D01*
X135748108Y-73607483D01*
X135667056Y-73599500D01*
X135332944Y-73599500D01*
X135257982Y-73606883D01*
X135000451Y-73632247D01*
X135000434Y-73632250D01*
X134672769Y-73697425D01*
X134672758Y-73697428D01*
X134353022Y-73794418D01*
X134044343Y-73922278D01*
X134044338Y-73922280D01*
X133749696Y-74079769D01*
X133749678Y-74079780D01*
X133471890Y-74265393D01*
X133471876Y-74265403D01*
X133213604Y-74477361D01*
X132977361Y-74713604D01*
X132765403Y-74971876D01*
X132765393Y-74971890D01*
X132579780Y-75249678D01*
X132579769Y-75249696D01*
X132422280Y-75544338D01*
X132422278Y-75544343D01*
X132294418Y-75853022D01*
X132197428Y-76172758D01*
X132197425Y-76172769D01*
X132132250Y-76500434D01*
X132132247Y-76500451D01*
X132106883Y-76757982D01*
X132100280Y-76825032D01*
X132099500Y-76832947D01*
X129757063Y-76832947D01*
X129768033Y-76553746D01*
X129768794Y-76544080D01*
X129820714Y-76105408D01*
X129822236Y-76095802D01*
X129825857Y-76077601D01*
X129908410Y-75662575D01*
X129910681Y-75653117D01*
X129915930Y-75634506D01*
X130030579Y-75227989D01*
X130033584Y-75218741D01*
X130124655Y-74971882D01*
X130186471Y-74804322D01*
X130190186Y-74795351D01*
X130375127Y-74394184D01*
X130379538Y-74385531D01*
X130595368Y-74000139D01*
X130600446Y-73991851D01*
X130845859Y-73624562D01*
X130851560Y-73616716D01*
X131125046Y-73269803D01*
X131131338Y-73262436D01*
X131431200Y-72938046D01*
X131438046Y-72931200D01*
X131762436Y-72631338D01*
X131769803Y-72625046D01*
X132116716Y-72351560D01*
X132124562Y-72345859D01*
X132491851Y-72100446D01*
X132500139Y-72095368D01*
X132885531Y-71879538D01*
X132894184Y-71875127D01*
X133295351Y-71690186D01*
X133304322Y-71686471D01*
X133718751Y-71533580D01*
X133727989Y-71530579D01*
X134153127Y-71410678D01*
X134162575Y-71408410D01*
X134595811Y-71322234D01*
X134605408Y-71320714D01*
X135044080Y-71268794D01*
X135053746Y-71268033D01*
X135497557Y-71250596D01*
X135502425Y-71250500D01*
X135544170Y-71250500D01*
X161455830Y-71250500D01*
X161497575Y-71250500D01*
X161502443Y-71250596D01*
G37*
%TD.AperFunction*%
%TD*%
%TA.AperFunction,Conductor*%
%TO.N,/Project Architecture/Sec A - Shift Register Screw Interface/SR_LATCH*%
G36*
X143084138Y-96003274D02*
G01*
X143095175Y-96004267D01*
X143173138Y-96014828D01*
X143184079Y-96016815D01*
X143222409Y-96025563D01*
X143260743Y-96034312D01*
X143271451Y-96037266D01*
X143346260Y-96061573D01*
X143356673Y-96065482D01*
X143428978Y-96096387D01*
X143439001Y-96101214D01*
X143508257Y-96138482D01*
X143517809Y-96144189D01*
X143583430Y-96187505D01*
X143592432Y-96194045D01*
X143653912Y-96243074D01*
X143662291Y-96250394D01*
X143719139Y-96304746D01*
X143726828Y-96312788D01*
X143778562Y-96372002D01*
X143785499Y-96380701D01*
X143831724Y-96444325D01*
X143837849Y-96453603D01*
X143878183Y-96521113D01*
X143883454Y-96530909D01*
X143917574Y-96601759D01*
X143921947Y-96611990D01*
X143949577Y-96685608D01*
X143953016Y-96696191D01*
X143973939Y-96772006D01*
X143976414Y-96782853D01*
X143990453Y-96860214D01*
X143991947Y-96871239D01*
X143999060Y-96950265D01*
X143999551Y-96959989D01*
X143999992Y-96999283D01*
X144000000Y-97000675D01*
X144000000Y-100000047D01*
X144000506Y-100095526D01*
X144008614Y-100286402D01*
X144024815Y-100476747D01*
X144024817Y-100476765D01*
X144049084Y-100666267D01*
X144049086Y-100666280D01*
X144049087Y-100666286D01*
X144071050Y-100794371D01*
X144081372Y-100854569D01*
X144110801Y-100991122D01*
X144121622Y-101041332D01*
X144169760Y-101226210D01*
X144225705Y-101408889D01*
X144289358Y-101589044D01*
X144360585Y-101766300D01*
X144439278Y-101940386D01*
X144525290Y-102110983D01*
X144576049Y-102201844D01*
X144618466Y-102277775D01*
X144618473Y-102277787D01*
X144618474Y-102277788D01*
X144718628Y-102440449D01*
X144825609Y-102598733D01*
X144825618Y-102598746D01*
X144939223Y-102752350D01*
X145003159Y-102831533D01*
X145059248Y-102900999D01*
X145185464Y-103044407D01*
X145185466Y-103044409D01*
X145317661Y-103182339D01*
X145450085Y-103309257D01*
X145455592Y-103314535D01*
X145599000Y-103440751D01*
X145652629Y-103484053D01*
X145747650Y-103560777D01*
X145901254Y-103674382D01*
X145962484Y-103715766D01*
X146059550Y-103781371D01*
X146148510Y-103836145D01*
X146222225Y-103881534D01*
X146343585Y-103949329D01*
X146389016Y-103974709D01*
X146472206Y-104016652D01*
X146559608Y-104060719D01*
X146615655Y-104086054D01*
X146733699Y-104139414D01*
X146910955Y-104210641D01*
X146910963Y-104210644D01*
X146910971Y-104210647D01*
X147091108Y-104274294D01*
X147273784Y-104330238D01*
X147458669Y-104378378D01*
X147645431Y-104418628D01*
X147833733Y-104450916D01*
X148023235Y-104475183D01*
X148213597Y-104491385D01*
X148404473Y-104499493D01*
X148499952Y-104500000D01*
X148500000Y-104500000D01*
X154999999Y-104500000D01*
X155000000Y-104500000D01*
X159025126Y-100525126D01*
X159082911Y-100468025D01*
X159086649Y-100464483D01*
X159206628Y-100355479D01*
X159211065Y-100351637D01*
X159335847Y-100248730D01*
X159340508Y-100245071D01*
X159470060Y-100148265D01*
X159474836Y-100144872D01*
X159608886Y-100054370D01*
X159613858Y-100051184D01*
X159752076Y-99967212D01*
X159757177Y-99964277D01*
X159899252Y-99887019D01*
X159904493Y-99884328D01*
X160050141Y-99813943D01*
X160055484Y-99811518D01*
X160204282Y-99748207D01*
X160209787Y-99746020D01*
X160361445Y-99689905D01*
X160367029Y-99687988D01*
X160521240Y-99639185D01*
X160526856Y-99637554D01*
X160683245Y-99596184D01*
X160688978Y-99594814D01*
X160847122Y-99560989D01*
X160852890Y-99559899D01*
X161012502Y-99533678D01*
X161018327Y-99532863D01*
X161178993Y-99514315D01*
X161184892Y-99513777D01*
X161346213Y-99502945D01*
X161352127Y-99502690D01*
X161513788Y-99499593D01*
X161519721Y-99499620D01*
X161681391Y-99504267D01*
X161687247Y-99504576D01*
X161848512Y-99516958D01*
X161854370Y-99517549D01*
X162014833Y-99537632D01*
X162020689Y-99538508D01*
X162180007Y-99566250D01*
X162185814Y-99567406D01*
X162310976Y-99595434D01*
X162343589Y-99602737D01*
X162349320Y-99604164D01*
X162505291Y-99647026D01*
X162510933Y-99648723D01*
X162664626Y-99698987D01*
X162670191Y-99700955D01*
X162821326Y-99758528D01*
X162826793Y-99760762D01*
X162974992Y-99825500D01*
X162980338Y-99827990D01*
X163125252Y-99899742D01*
X163130477Y-99902486D01*
X163271830Y-99981115D01*
X163276878Y-99984083D01*
X163414307Y-100069390D01*
X163419231Y-100072613D01*
X163552415Y-100164398D01*
X163557178Y-100167852D01*
X163685767Y-100265871D01*
X163690402Y-100269583D01*
X163814176Y-100373667D01*
X163818627Y-100377596D01*
X163937220Y-100487433D01*
X163941479Y-100491570D01*
X164054726Y-100607007D01*
X164058782Y-100611345D01*
X164166350Y-100732046D01*
X164170193Y-100736572D01*
X164271865Y-100862291D01*
X164275478Y-100866984D01*
X164371035Y-100997451D01*
X164374413Y-101002304D01*
X164463594Y-101137167D01*
X164466749Y-101142196D01*
X164549377Y-101281181D01*
X164552289Y-101286357D01*
X164628166Y-101429135D01*
X164630826Y-101434444D01*
X164699773Y-101580674D01*
X164702176Y-101586103D01*
X164764056Y-101735495D01*
X164766196Y-101741033D01*
X164820844Y-101893187D01*
X164822717Y-101898823D01*
X164870022Y-102053433D01*
X164871623Y-102059151D01*
X164911473Y-102215852D01*
X164912798Y-102221639D01*
X164945099Y-102380057D01*
X164946146Y-102385903D01*
X164970830Y-102545713D01*
X164971595Y-102551601D01*
X164988596Y-102712370D01*
X164989079Y-102718288D01*
X164998366Y-102879709D01*
X164998565Y-102885643D01*
X165000114Y-103047313D01*
X165000029Y-103053251D01*
X164993836Y-103214816D01*
X164993467Y-103220742D01*
X164979546Y-103381837D01*
X164978893Y-103387739D01*
X164957276Y-103547977D01*
X164956341Y-103553841D01*
X164927080Y-103712848D01*
X164925866Y-103718659D01*
X164889028Y-103876087D01*
X164887537Y-103881836D01*
X164843205Y-104037313D01*
X164841441Y-104042982D01*
X164789707Y-104196187D01*
X164787673Y-104201765D01*
X164728676Y-104352291D01*
X164726377Y-104357767D01*
X164660242Y-104505291D01*
X164657684Y-104510649D01*
X164584547Y-104654871D01*
X164581736Y-104660100D01*
X164501790Y-104800637D01*
X164498731Y-104805728D01*
X164412157Y-104942261D01*
X164408858Y-104947198D01*
X164315834Y-105079450D01*
X164312303Y-105084223D01*
X164213058Y-105211866D01*
X164209302Y-105216465D01*
X164104060Y-105339211D01*
X164100088Y-105343625D01*
X163989092Y-105461190D01*
X163984913Y-105465409D01*
X163868415Y-105577526D01*
X163864040Y-105581539D01*
X163742313Y-105687948D01*
X163737751Y-105691748D01*
X163640034Y-105769238D01*
X163611354Y-105791983D01*
X163611061Y-105792215D01*
X163606320Y-105795792D01*
X163474979Y-105890068D01*
X163470074Y-105893414D01*
X163334376Y-105981291D01*
X163329317Y-105984399D01*
X163189524Y-106065705D01*
X163184321Y-106068566D01*
X163040832Y-106143068D01*
X163035517Y-106145668D01*
X162888607Y-106213224D01*
X162883171Y-106215567D01*
X162733176Y-106276020D01*
X162727637Y-106278100D01*
X162641975Y-106307943D01*
X162574951Y-106331293D01*
X162569300Y-106333111D01*
X162414242Y-106378935D01*
X162408508Y-106380481D01*
X162251443Y-106418826D01*
X162245642Y-106420096D01*
X162086913Y-106450879D01*
X162081059Y-106451869D01*
X161921036Y-106475019D01*
X161915141Y-106475729D01*
X161754194Y-106491192D01*
X161748271Y-106491618D01*
X161586409Y-106499375D01*
X161581214Y-106499515D01*
X161501056Y-106499993D01*
X161500334Y-106499998D01*
X161499595Y-106500000D01*
X155000000Y-106500000D01*
X148500312Y-106500000D01*
X148499771Y-106499999D01*
X148388424Y-106499513D01*
X148384637Y-106499438D01*
X148161965Y-106491661D01*
X148157644Y-106491435D01*
X147935614Y-106475910D01*
X147931301Y-106475533D01*
X147709923Y-106452265D01*
X147705628Y-106451737D01*
X147485244Y-106420764D01*
X147480969Y-106420087D01*
X147261776Y-106381438D01*
X147257527Y-106380612D01*
X147039839Y-106334341D01*
X147035621Y-106333368D01*
X147034590Y-106333111D01*
X147004925Y-106325714D01*
X146819628Y-106279514D01*
X146815448Y-106278393D01*
X146601530Y-106217053D01*
X146597391Y-106215788D01*
X146385713Y-106147010D01*
X146381621Y-106145601D01*
X146172460Y-106069473D01*
X146168433Y-106067927D01*
X146061735Y-106024819D01*
X145962062Y-105984548D01*
X145958079Y-105982857D01*
X145754733Y-105892322D01*
X145750810Y-105890492D01*
X145550798Y-105792939D01*
X145546942Y-105790975D01*
X145350399Y-105686472D01*
X145346613Y-105684373D01*
X145153876Y-105573096D01*
X145150166Y-105570867D01*
X144961419Y-105452925D01*
X144957789Y-105450568D01*
X144773248Y-105326094D01*
X144769732Y-105323632D01*
X144589655Y-105192798D01*
X144586199Y-105190193D01*
X144410831Y-105053180D01*
X144407468Y-105050457D01*
X144236935Y-104907364D01*
X144233668Y-104904524D01*
X144068287Y-104755614D01*
X144065121Y-104752662D01*
X143905012Y-104598047D01*
X143901952Y-104594987D01*
X143810222Y-104499998D01*
X143747337Y-104434878D01*
X143744385Y-104431712D01*
X143696362Y-104378377D01*
X143595465Y-104266319D01*
X143592635Y-104263064D01*
X143449542Y-104092531D01*
X143446819Y-104089168D01*
X143309806Y-103913800D01*
X143307201Y-103910344D01*
X143286263Y-103881525D01*
X143176359Y-103730256D01*
X143173905Y-103726751D01*
X143164527Y-103712848D01*
X143049422Y-103542196D01*
X143047074Y-103538580D01*
X142929132Y-103349833D01*
X142926903Y-103346123D01*
X142832341Y-103182338D01*
X142815622Y-103153379D01*
X142813527Y-103149600D01*
X142759140Y-103047313D01*
X142709022Y-102953054D01*
X142707060Y-102949201D01*
X142683547Y-102900993D01*
X142609497Y-102749168D01*
X142607677Y-102745266D01*
X142594347Y-102715327D01*
X142517142Y-102541920D01*
X142515451Y-102537937D01*
X142432059Y-102331536D01*
X142430526Y-102327539D01*
X142412413Y-102277775D01*
X142354398Y-102118378D01*
X142352989Y-102114286D01*
X142284209Y-101902602D01*
X142282946Y-101898469D01*
X142281431Y-101893187D01*
X142221606Y-101684551D01*
X142220485Y-101680371D01*
X142166620Y-101464332D01*
X142165665Y-101460193D01*
X142119382Y-101242449D01*
X142118561Y-101238223D01*
X142101629Y-101142196D01*
X142079908Y-101019008D01*
X142079235Y-101014755D01*
X142048258Y-100794338D01*
X142047738Y-100790109D01*
X142024464Y-100568684D01*
X142024089Y-100564385D01*
X142018850Y-100489465D01*
X142008564Y-100342355D01*
X142008338Y-100338034D01*
X142006535Y-100286402D01*
X142000559Y-100115308D01*
X142000487Y-100111627D01*
X142000001Y-100000228D01*
X142000000Y-99999688D01*
X142000000Y-97000675D01*
X142000008Y-96999287D01*
X142000448Y-96959993D01*
X142000939Y-96950265D01*
X142008052Y-96871239D01*
X142009546Y-96860214D01*
X142023585Y-96782853D01*
X142026057Y-96772016D01*
X142046987Y-96696177D01*
X142050417Y-96685622D01*
X142078056Y-96611980D01*
X142082420Y-96601769D01*
X142116548Y-96530901D01*
X142121808Y-96521127D01*
X142162164Y-96453581D01*
X142168264Y-96444340D01*
X142214510Y-96380687D01*
X142221424Y-96372018D01*
X142273187Y-96312770D01*
X142280860Y-96304746D01*
X142337708Y-96250394D01*
X142346081Y-96243078D01*
X142407575Y-96194038D01*
X142416560Y-96187511D01*
X142482201Y-96144181D01*
X142491742Y-96138482D01*
X142560998Y-96101214D01*
X142571015Y-96096389D01*
X142643331Y-96065480D01*
X142653732Y-96061576D01*
X142728554Y-96037264D01*
X142739250Y-96034313D01*
X142815920Y-96016815D01*
X142826857Y-96014829D01*
X142904826Y-96004267D01*
X142915861Y-96003274D01*
X142994456Y-95999745D01*
X143005544Y-95999745D01*
X143084138Y-96003274D01*
G37*
%TD.AperFunction*%
%TD*%
M02*
