M48
; DRILL file {KiCad 9.0.7+1} date 2026-05-02T08:46:30+0000
; FORMAT={-:-/ absolute / metric / decimal}
; #@! TF.CreationDate,2026-05-02T08:46:30+00:00
; #@! TF.GenerationSoftware,Kicad,Pcbnew,9.0.7+1
; #@! TF.FileFunction,Plated,1,2,PTH
FMAT,2
METRIC
; #@! TA.AperFunction,Plated,PTH,ViaDrill
T1C0.250
; #@! TA.AperFunction,Plated,PTH,ComponentDrill
T2C0.500
; #@! TA.AperFunction,Plated,PTH,ComponentDrill
T3C3.200
%
G90
G05
T1
X138.34Y-82.365
X138.975Y-83.0
X139.61Y-83.635
X140.245Y-84.27
X140.88Y-84.905
X141.515Y-85.54
X142.15Y-77.285
X142.15Y-86.175
X143.0Y-97.0
X145.325Y-76.015
X151.675Y-76.015
X154.85Y-77.285
X155.485Y-85.54
X156.12Y-84.905
X156.755Y-84.27
X157.39Y-83.635
X158.025Y-83.0
X158.66Y-82.365
T2
X133.1Y-77.0
X133.1Y-103.0
X133.803Y-75.303
X133.803Y-78.697
X133.803Y-101.303
X133.803Y-104.697
X135.5Y-74.6
X135.5Y-79.4
X135.5Y-100.6
X135.5Y-105.4
X137.197Y-75.303
X137.197Y-78.697
X137.197Y-101.303
X137.197Y-104.697
X137.9Y-77.0
X137.9Y-103.0
X146.1Y-100.0
X146.803Y-98.303
X146.803Y-101.697
X148.5Y-97.6
X148.5Y-102.4
X150.197Y-98.303
X150.197Y-101.697
X150.9Y-100.0
X159.1Y-77.0
X159.1Y-103.0
X159.803Y-75.303
X159.803Y-78.697
X159.803Y-101.303
X159.803Y-104.697
X161.5Y-74.6
X161.5Y-79.4
X161.5Y-100.6
X161.5Y-105.4
X163.197Y-75.303
X163.197Y-78.697
X163.197Y-101.303
X163.197Y-104.697
X163.9Y-77.0
X163.9Y-103.0
T3
X135.5Y-77.0
X135.5Y-103.0
X148.5Y-100.0
X161.5Y-77.0
X161.5Y-103.0
M30
